RobotoHinted-Regular.ufo
<glyph name="parenleft" format="2">
  <advance width="700"/>
  <unicode hex="0028"/>
  <outline>
    <contour>
      <point x="133" y="591" type="qcurve" smooth="yes"/>
      <point x="133" y="817"/>
      <point x="254" y="1233"/>
      <point x="374.0" y="1403.0" type="qcurve" smooth="yes" name="inserted"/>
      <point x="434.0" y="1488.0" name="inserted"/>
      <point x="558.5" y="1608.0"/>
      <point x="623" y="1643" type="qcurve"/>
      <point x="661" y="1521" type="line"/>
      <point x="515" y="1409"/>
      <point x="328" y="949"/>
      <point x="319" y="664" type="qcurve" smooth="yes"/>
      <point x="318" y="579" type="line"/>
      <point x="318.0" y="386.0" name="inserted"/>
      <point x="388.5" y="51.0"/>
      <point x="459" y="-91" type="qcurve" smooth="yes"/>
      <point x="501.5" y="-176.0" name="inserted"/>
      <point x="602.5" y="-309.0"/>
      <point x="661" y="-357" type="qcurve"/>
      <point x="623" y="-470" type="line"/>
      <point x="556.5" y="-433.0" name="inserted"/>
      <point x="429.5" y="-309.0"/>
      <point x="369" y="-222" type="qcurve" smooth="yes"/>
      <point x="251.0" y="-52.0" name="inserted"/>
      <point x="133.0" y="354.5"/>
    </contour>
  </outline>
</glyph>
<glyph name="hyphen" format="2">
  <advance width="565"/>
  <unicode hex="002D"/>
  <outline>
    <contour>
      <point x="525" y="543" type="line"/>
      <point x="37" y="543" type="line"/>
      <point x="37" y="694" type="line"/>
      <point x="525" y="694" type="line"/>
    </contour>
  </outline>
</glyph>
<glyph name="greater" format="2">
  <advance width="1070"/>
  <unicode hex="003E"/>
  <outline>
    <contour>
      <point x="795" y="650" type="line"/>
      <point x="134" y="909" type="line"/>
      <point x="134" y="1099" type="line"/>
      <point x="988" y="721" type="line"/>
      <point x="988" y="575" type="line"/>
      <point x="134" y="196" type="line"/>
      <point x="134" y="388" type="line"/>
    </contour>
  </outline>
</glyph>
<glyph name="B" format="2">
  <advance width="1275"/>
  <unicode hex="0042"/>
  <outline>
    <contour>
      <point x="169" y="0" type="line"/>
      <point x="169" y="1456" type="line"/>
      <point x="645" y="1456" type="line" smooth="yes"/>
      <point x="882" y="1456"/>
      <point x="1121" y="1260"/>
      <point x="1121" y="1068" type="qcurve" smooth="yes"/>
      <point x="1121" y="966"/>
      <point x="1005" y="809"/>
      <point x="905" y="766" type="qcurve"/>
      <point x="1023" y="733"/>
      <point x="1160" y="548"/>
      <point x="1160" y="420" type="qcurve" smooth="yes"/>
      <point x="1160" y="224"/>
      <point x="906" y="0"/>
      <point x="674" y="0" type="qcurve" smooth="yes"/>
    </contour>
    <contour>
      <point x="361" y="681" type="line"/>
      <point x="361" y="157" type="line"/>
      <point x="678" y="157" type="line" smooth="yes"/>
      <point x="812" y="157"/>
      <point x="967" y="296"/>
      <point x="967" y="418" type="qcurve" smooth="yes"/>
      <point x="967.0" y="549.5" name="inserted"/>
      <point x="824.0" y="681.0"/>
      <point x="681" y="681" type="qcurve" smooth="yes"/>
    </contour>
    <contour>
      <point x="361" y="835" type="line"/>
      <point x="651" y="835" type="line" smooth="yes"/>
      <point x="777" y="835"/>
      <point x="928" y="961"/>
      <point x="928" y="1069" type="qcurve" smooth="yes"/>
      <point x="928" y="1189"/>
      <point x="788" y="1298"/>
      <point x="645" y="1298" type="qcurve" smooth="yes"/>
      <point x="361" y="1298" type="line"/>
    </contour>
  </outline>
</glyph>
<glyph name="D" format="2">
  <advance width="1343"/>
  <unicode hex="0044"/>
  <outline>
    <contour>
      <point x="169" y="0" type="line"/>
      <point x="169" y="1456" type="line"/>
      <point x="580" y="1456" type="line" smooth="yes"/>
      <point x="770" y="1456"/>
      <point x="1062" y="1288"/>
      <point x="1141.5" y="1133.0" type="qcurve" smooth="yes" name="inserted"/>
      <point x="1181.25" y="1055.5" name="inserted"/>
      <point x="1221.5" y="877.5"/>
      <point x="1222" y="777" type="qcurve" smooth="yes"/>
      <point x="1222" y="684" type="line" smooth="yes"/>
      <point x="1222" y="478"/>
      <point x="1063" y="168"/>
      <point x="915.5" y="85.0" type="qcurve" smooth="yes" name="inserted"/>
      <point x="841.75" y="43.5" name="inserted"/>
      <point x="670.0" y="1.0"/>
      <point x="572" y="0" type="qcurve" smooth="yes"/>
    </contour>
    <contour>
      <point x="361" y="1298" type="line"/>
      <point x="361" y="157" type="line"/>
      <point x="563" y="157" type="line" smooth="yes"/>
      <point x="785" y="157"/>
      <point x="1032" y="433"/>
      <point x="1032" y="688" type="qcurve" smooth="yes"/>
      <point x="1032" y="773" type="line" smooth="yes"/>
      <point x="1032" y="1021"/>
      <point x="799" y="1296"/>
      <point x="585" y="1298" type="qcurve" smooth="yes"/>
    </contour>
  </outline>
</glyph>
<glyph name="H" format="2">
  <advance width="1460"/>
  <unicode hex="0048"/>
  <outline>
    <contour>
      <point x="1288" y="0" type="line"/>
      <point x="1095" y="0" type="line"/>
      <point x="1095" y="673" type="line"/>
      <point x="361" y="673" type="line"/>
      <point x="361" y="0" type="line"/>
      <point x="169" y="0" type="line"/>
      <point x="169" y="1456" type="line"/>
      <point x="361" y="1456" type="line"/>
      <point x="361" y="830" type="line"/>
      <point x="1095" y="830" type="line"/>
      <point x="1095" y="1456" type="line"/>
      <point x="1288" y="1456" type="line"/>
    </contour>
  </outline>
</glyph>
<glyph name="K" format="2">
  <advance width="1284"/>
  <unicode hex="004B"/>
  <outline>
    <contour>
      <point x="539" y="677" type="line"/>
      <point x="361" y="492" type="line"/>
      <point x="361" y="0" type="line"/>
      <point x="169" y="0" type="line"/>
      <point x="169" y="1456" type="line"/>
      <point x="361" y="1456" type="line"/>
      <point x="361" y="736" type="line"/>
      <point x="1008" y="1456" type="line"/>
      <point x="1240" y="1456" type="line"/>
      <point x="667" y="813" type="line"/>
      <point x="1285" y="0" type="line"/>
      <point x="1055" y="0" type="line"/>
    </contour>
  </outline>
</glyph>
<glyph name="Q" format="2">
  <advance width="1408"/>
  <unicode hex="0051"/>
  <outline>
    <contour>
      <point x="1281" y="681" type="line" smooth="yes"/>
      <point x="1281" y="470"/>
      <point x="1147" y="165"/>
      <point x="1026" y="79" type="qcurve"/>
      <point x="1286" y="-125" type="line"/>
      <point x="1155" y="-246" type="line"/>
      <point x="848" y="-2" type="line"/>
      <point x="812.0" y="-11.0" name="inserted"/>
      <point x="736.0" y="-20.0"/>
      <point x="696" y="-20" type="qcurve" smooth="yes"/>
      <point x="524" y="-20"/>
      <point x="258" y="149"/>
      <point x="184.5" y="305.5" type="qcurve" smooth="yes" name="inserted"/>
      <point x="147.75" y="383.75" name="inserted"/>
      <point x="110.0" y="565.0"/>
      <point x="109" y="668" type="qcurve" smooth="yes"/>
      <point x="109" y="773" type="line" smooth="yes"/>
      <point x="109" y="983"/>
      <point x="255" y="1305"/>
      <point x="388.5" y="1390.5" type="qcurve" smooth="yes" name="inserted"/>
      <point x="455.25" y="1433.25" name="inserted"/>
      <point x="608.0" y="1476.0"/>
      <point x="694" y="1476" type="qcurve" smooth="yes"/>
      <point x="870" y="1476"/>
      <point x="1137" y="1306"/>
      <point x="1209.0" y="1146.5" type="qcurve" smooth="yes" name="inserted"/>
      <point x="1245.0" y="1066.75" name="inserted"/>
      <point x="1281.0" y="880.5"/>
      <point x="1281" y="774" type="qcurve" smooth="yes"/>
    </contour>
    <contour>
      <point x="1089" y="775" type="line" smooth="yes"/>
      <point x="1089" y="1032"/>
      <point x="884" y="1311"/>
      <point x="694" y="1311" type="qcurve" smooth="yes"/>
      <point x="513" y="1311"/>
      <point x="304" y="1034"/>
      <point x="301" y="788" type="qcurve"/>
      <point x="301" y="681" type="line" smooth="yes"/>
      <point x="301" y="431"/>
      <point x="510" y="143"/>
      <point x="696.0" y="143.0" type="qcurve" smooth="yes" name="inserted"/>
      <point x="882" y="143"/>
      <point x="1086" y="414"/>
      <point x="1089" y="667" type="qcurve" smooth="yes"/>
    </contour>
  </outline>
</glyph>
<glyph name="Z" format="2">
  <advance width="1226"/>
  <unicode hex="005A"/>
  <outline>
    <contour>
      <point x="313" y="157" type="line"/>
      <point x="1146" y="157" type="line"/>
      <point x="1146" y="0" type="line"/>
      <point x="86" y="0" type="line"/>
      <point x="86" y="144" type="line"/>
      <point x="884" y="1298" type="line"/>
      <point x="99" y="1298" type="line"/>
      <point x="99" y="1456" type="line"/>
      <point x="1114" y="1456" type="line"/>
      <point x="1114" y="1315" type="line"/>
    </contour>
  </outline>
</glyph>
<glyph name="i" format="2">
  <advance width="497"/>
  <unicode hex="0069"/>
  <outline>
    <contour>
      <point x="341" y="0" type="line"/>
      <point x="156" y="0" type="line"/>
      <point x="156" y="1082" type="line"/>
      <point x="341" y="1082" type="line"/>
    </contour>
    <contour>
      <point x="141" y="1369" type="qcurve" smooth="yes"/>
      <point x="141" y="1414"/>
      <point x="196" y="1476"/>
      <point x="250.0" y="1476.0" type="qcurve" smooth="yes" name="inserted"/>
      <point x="304" y="1476"/>
      <point x="360" y="1414"/>
      <point x="360.0" y="1369.0" type="qcurve" smooth="yes" name="inserted"/>
      <point x="360" y="1324"/>
      <point x="304" y="1264"/>
      <point x="250.0" y="1264.0" type="qcurve" smooth="yes" name="inserted"/>
      <point x="196" y="1264"/>
      <point x="141" y="1324"/>
    </contour>
  </outline>
</glyph>
<glyph name="u" format="2">
  <advance width="1129"/>
  <unicode hex="0075"/>
  <outline>
    <contour>
      <point x="808" y="107" type="line"/>
      <point x="754.0" y="43.5" name="inserted"/>
      <point x="595.5" y="-20.0"/>
      <point x="491" y="-20" type="qcurve" smooth="yes"/>
      <point x="318" y="-20"/>
      <point x="137" y="181"/>
      <point x="136" y="378" type="qcurve" smooth="yes"/>
      <point x="136" y="1082" type="line"/>
      <point x="321" y="1082" type="line"/>
      <point x="321" y="383" type="line" smooth="yes"/>
      <point x="321.0" y="260.0" name="inserted"/>
      <point x="421.0" y="137.0"/>
      <point x="521" y="137" type="qcurve" smooth="yes"/>
      <point x="627.0" y="137.0" name="inserted"/>
      <point x="768.0" y="216.0"/>
      <point x="803" y="295" type="qcurve"/>
      <point x="803" y="1082" type="line"/>
      <point x="988" y="1082" type="line"/>
      <point x="988" y="0" type="line"/>
      <point x="812" y="0" type="line"/>
    </contour>
  </outline>
</glyph>
<glyph name="v" format="2">
  <advance width="992"/>
  <unicode hex="0076"/>
  <outline>
    <contour>
      <point x="497" y="251" type="line"/>
      <point x="765" y="1082" type="line"/>
      <point x="954" y="1082" type="line"/>
      <point x="566" y="0" type="line"/>
      <point x="425" y="0" type="line"/>
      <point x="33" y="1082" type="line"/>
      <point x="222" y="1082" type="line"/>
    </contour>
  </outline>
</glyph>
<glyph name="z" format="2">
  <advance width="1015"/>
  <unicode hex="007A"/>
  <outline>
    <contour>
      <point x="314" y="151" type="line"/>
      <point x="947" y="151" type="line"/>
      <point x="947" y="0" type="line"/>
      <point x="88" y="0" type="line"/>
      <point x="88" y="136" type="line"/>
      <point x="685" y="929" type="line"/>
      <point x="97" y="929" type="line"/>
      <point x="97" y="1082" type="line"/>
      <point x="917" y="1082" type="line"/>
      <point x="917" y="951" type="line"/>
    </contour>
  </outline>
</glyph>
<glyph name="cent" format="2">
  <advance width="1120"/>
  <unicode hex="00A2"/>
  <outline>
    <contour>
      <point x="586" y="131" type="qcurve" smooth="yes"/>
      <point x="686" y="131"/>
      <point x="834" y="252"/>
      <point x="842" y="341" type="qcurve"/>
      <point x="1017" y="341" type="line"/>
      <point x="1011" y="215"/>
      <point x="813" y="14"/>
      <point x="669" y="-12" type="qcurve"/>
      <point x="669" y="-245" type="line"/>
      <point x="484" y="-245" type="line"/>
      <point x="484" y="-11" type="line"/>
      <point x="305" y="23"/>
      <point x="105" y="307"/>
      <point x="105" y="527" type="qcurve" smooth="yes"/>
      <point x="105" y="562" type="line" smooth="yes"/>
      <point x="105" y="774"/>
      <point x="307" y="1059"/>
      <point x="484" y="1092" type="qcurve"/>
      <point x="484" y="1318" type="line"/>
      <point x="669" y="1318" type="line"/>
      <point x="669" y="1095" type="line"/>
      <point x="819" y="1072"/>
      <point x="1011" y="860"/>
      <point x="1017" y="710" type="qcurve"/>
      <point x="842" y="710" type="line"/>
      <point x="834" y="815"/>
      <point x="691" y="950"/>
      <point x="586" y="950" type="qcurve" smooth="yes"/>
      <point x="445" y="950"/>
      <point x="290" y="747"/>
      <point x="290" y="555" type="qcurve" smooth="yes"/>
      <point x="290" y="520" type="line" smooth="yes"/>
      <point x="290" y="333"/>
      <point x="445" y="131"/>
    </contour>
  </outline>
</glyph>
<glyph name="currency" format="2">
  <advance width="1460"/>
  <unicode hex="00A4"/>
  <outline>
    <contour>
      <point x="1103" y="112" type="line"/>
      <point x="1023.5" y="46.0" name="inserted"/>
      <point x="839.5" y="-20.0"/>
      <point x="735" y="-20" type="qcurve" smooth="yes"/>
      <point x="631.5" y="-20.0" name="inserted"/>
      <point x="448.5" y="45.0"/>
      <point x="369" y="110" type="qcurve"/>
      <point x="235" y="-26" type="line"/>
      <point x="105" y="109" type="line"/>
      <point x="244" y="250" type="line"/>
      <point x="192.0" y="328.0" name="inserted"/>
      <point x="140.0" y="507.0"/>
      <point x="140" y="608" type="qcurve" smooth="yes"/>
      <point x="140.0" y="711.0" name="inserted"/>
      <point x="196.0" y="895.5"/>
      <point x="252" y="977" type="qcurve"/>
      <point x="105" y="1128" type="line"/>
      <point x="235" y="1264" type="line"/>
      <point x="382" y="1114" type="line"/>
      <point x="461.0" y="1174.0" name="inserted"/>
      <point x="637.5" y="1234.0"/>
      <point x="735" y="1234" type="qcurve" smooth="yes"/>
      <point x="833.0" y="1234.0" name="inserted"/>
      <point x="1010.5" y="1173.5"/>
      <point x="1090" y="1113" type="qcurve"/>
      <point x="1239" y="1265" type="line"/>
      <point x="1371" y="1128" type="line"/>
      <point x="1220" y="974" type="line"/>
      <point x="1275.0" y="892.5" name="inserted"/>
      <point x="1330.0" y="709.5"/>
      <point x="1330" y="608" type="qcurve" smooth="yes"/>
      <point x="1330.0" y="510.0" name="inserted"/>
      <point x="1279.0" y="332.5"/>
      <point x="1228" y="253" type="qcurve"/>
      <point x="1371" y="109" type="line"/>
      <point x="1239" y="-27" type="line"/>
    </contour>
    <contour>
      <point x="311" y="608" type="qcurve" smooth="yes"/>
      <point x="311" y="485"/>
      <point x="426" y="273"/>
      <point x="524.0" y="212.0" type="qcurve" smooth="yes" name="inserted"/>
      <point x="622" y="151"/>
      <point x="848" y="151"/>
      <point x="946.0" y="212.5" type="qcurve" smooth="yes" name="inserted"/>
      <point x="1044" y="274"/>
      <point x="1157" y="485"/>
      <point x="1157" y="608" type="qcurve" smooth="yes"/>
      <point x="1157" y="730"/>
      <point x="1044" y="941"/>
      <point x="945.5" y="1001.5" type="qcurve" smooth="yes" name="inserted"/>
      <point x="896.25" y="1031.75" name="inserted"/>
      <point x="791.0" y="1062.0"/>
      <point x="735" y="1062" type="qcurve" smooth="yes"/>
      <point x="622" y="1062"/>
      <point x="426" y="942"/>
      <point x="368.5" y="836.0" type="qcurve" smooth="yes" name="inserted"/>
      <point x="339.75" y="783.0" name="inserted"/>
      <point x="311.0" y="669.0"/>
    </contour>
  </outline>
</glyph>
<glyph name="macron" format="2">
  <advance width="938"/>
  <unicode hex="00AF"/>
  <outline>
    <contour>
      <point x="814" y="1302" type="line"/>
      <point x="142" y="1302" type="line"/>
      <point x="142" y="1445" type="line"/>
      <point x="814" y="1445" type="line"/>
    </contour>
  </outline>
</glyph>
<glyph name="uni00B2" format="2">
  <advance width="751"/>
  <unicode hex="00B2"/>
  <outline>
    <contour>
      <point x="683" y="667" type="line"/>
      <point x="84" y="667" type="line"/>
      <point x="84" y="775" type="line"/>
      <point x="384" y="1057" type="line" smooth="yes"/>
      <point x="438.5" y="1108.0" name="inserted"/>
      <point x="493.0" y="1193.5"/>
      <point x="493" y="1228" type="qcurve" smooth="yes"/>
      <point x="493" y="1277"/>
      <point x="429" y="1338"/>
      <point x="369" y="1338" type="qcurve" smooth="yes"/>
      <point x="294" y="1338"/>
      <point x="223" y="1262"/>
      <point x="223" y="1205" type="qcurve"/>
      <point x="66" y="1205" type="line"/>
      <point x="66" y="1319"/>
      <point x="233" y="1467"/>
      <point x="365.0" y="1467.0" type="qcurve" smooth="yes" name="inserted"/>
      <point x="497" y="1467"/>
      <point x="651" y="1340"/>
      <point x="651" y="1230" type="qcurve" smooth="yes"/>
      <point x="651.0" y="1178.0" name="inserted"/>
      <point x="597.5" y="1072.5"/>
      <point x="544" y="1019" type="qcurve" smooth="yes"/>
      <point x="460" y="940" type="line"/>
      <point x="284" y="795" type="line"/>
      <point x="683" y="795" type="line"/>
    </contour>
  </outline>
</glyph>
<glyph name="mu" format="2">
  <advance width="1160"/>
  <unicode hex="00B5"/>
  <outline>
    <contour>
      <point x="339" y="1082" type="line"/>
      <point x="339" y="449" type="line" smooth="yes"/>
      <point x="340" y="286"/>
      <point x="443" y="130"/>
      <point x="559" y="130" type="qcurve" smooth="yes"/>
      <point x="658.5" y="130.0" name="inserted"/>
      <point x="789.0" y="206.0"/>
      <point x="820" y="282" type="qcurve"/>
      <point x="820" y="1082" type="line"/>
      <point x="1006" y="1082" type="line"/>
      <point x="1006" y="0" type="line"/>
      <point x="839" y="0" type="line"/>
      <point x="830" y="115" type="line"/>
      <point x="783.5" y="47.5" name="inserted"/>
      <point x="652.0" y="-20.0"/>
      <point x="567" y="-20" type="qcurve" smooth="yes"/>
      <point x="493.5" y="-20.0" name="inserted"/>
      <point x="379.5" y="16.5"/>
      <point x="339" y="53" type="qcurve"/>
      <point x="339" y="-416" type="line"/>
      <point x="154" y="-416" type="line"/>
      <point x="154" y="1082" type="line"/>
    </contour>
  </outline>
</glyph>
<glyph name="cedilla" format="2">
  <advance width="507"/>
  <unicode hex="00B8"/>
  <outline>
    <contour>
      <point x="285" y="0" type="line"/>
      <point x="273" y="-52" type="line"/>
      <point x="349.5" y="-65.5" name="inserted"/>
      <point x="426.0" y="-152.0"/>
      <point x="426" y="-225" type="qcurve" smooth="yes"/>
      <point x="426" y="-322"/>
      <point x="266" y="-435"/>
      <point x="123" y="-435" type="qcurve"/>
      <point x="116" y="-328" type="line"/>
      <point x="195" y="-328"/>
      <point x="282" y="-276"/>
      <point x="282" y="-229" type="qcurve" smooth="yes"/>
      <point x="282" y="-185"/>
      <point x="218" y="-143"/>
      <point x="120" y="-134" type="qcurve"/>
      <point x="152" y="0" type="line"/>
    </contour>
  </outline>
</glyph>
<glyph name="uni00B9" format="2">
  <advance width="751"/>
  <unicode hex="00B9"/>
  <outline>
    <contour>
      <point x="495" y="667" type="line"/>
      <point x="338" y="667" type="line"/>
      <point x="338" y="1268" type="line"/>
      <point x="122" y="1211" type="line"/>
      <point x="122" y="1339" type="line"/>
      <point x="477" y="1456" type="line"/>
      <point x="495" y="1456" type="line"/>
    </contour>
  </outline>
</glyph>
<glyph name="AE" format="2">
  <advance width="1914"/>
  <unicode hex="00C6"/>
  <outline>
    <contour>
      <point x="1879" y="0" type="line"/>
      <point x="996" y="0" type="line"/>
      <point x="981" y="353" type="line"/>
      <point x="417" y="353" type="line"/>
      <point x="212" y="0" type="line"/>
      <point x="-14" y="0" type="line"/>
      <point x="866" y="1456" type="line"/>
      <point x="1817" y="1456" type="line"/>
      <point x="1817" y="1304" type="line"/>
      <point x="1126" y="1304" type="line"/>
      <point x="1146" y="833" type="line"/>
      <point x="1736" y="833" type="line"/>
      <point x="1736" y="682" type="line"/>
      <point x="1152" y="682" type="line"/>
      <point x="1174" y="151" type="line"/>
      <point x="1879" y="151" type="line"/>
    </contour>
    <contour>
      <point x="518" y="527" type="line"/>
      <point x="974" y="527" type="line"/>
      <point x="943" y="1260" type="line"/>
    </contour>
  </outline>
</glyph>
<glyph name="Thorn" format="2">
  <advance width="1210"/>
  <unicode hex="00DE"/>
  <outline>
    <contour>
      <point x="352" y="1456" type="line"/>
      <point x="352" y="1163" type="line"/>
      <point x="631" y="1163" type="line" smooth="yes"/>
      <point x="778" y="1163"/>
      <point x="998" y="1058"/>
      <point x="1057.5" y="961.0" type="qcurve" smooth="yes" name="inserted"/>
      <point x="1087.25" y="912.5" name="inserted"/>
      <point x="1117.0" y="801.0"/>
      <point x="1117" y="738" type="qcurve" smooth="yes"/>
      <point x="1117" y="544"/>
      <point x="853" y="313"/>
      <point x="626" y="313" type="qcurve" smooth="yes"/>
      <point x="352" y="313" type="line"/>
      <point x="352" y="0" type="line"/>
      <point x="166" y="0" type="line"/>
      <point x="166" y="1456" type="line"/>
    </contour>
    <contour>
      <point x="352" y="1011" type="line"/>
      <point x="352" y="465" type="line"/>
      <point x="629" y="465" type="line" smooth="yes"/>
      <point x="771" y="465"/>
      <point x="931" y="616"/>
      <point x="931" y="736" type="qcurve" smooth="yes"/>
      <point x="931" y="859"/>
      <point x="771" y="1010"/>
      <point x="635" y="1011" type="qcurve" smooth="yes"/>
    </contour>
  </outline>
</glyph>
<glyph name="Eogonek" format="2">
  <advance width="1164"/>
  <unicode hex="0118"/>
  <outline>
    <contour>
      <point x="992" y="673" type="line"/>
      <point x="361" y="673" type="line"/>
      <point x="361" y="157" type="line"/>
      <point x="1094" y="157" type="line"/>
      <point x="1094" y="0" type="line"/>
      <point x="1021" y="0" type="line"/>
      <point x="963" y="-45" type="line" smooth="yes"/>
      <point x="906.5" y="-90.5" name="inserted"/>
      <point x="850.0" y="-179.0"/>
      <point x="850" y="-222" type="qcurve" smooth="yes"/>
      <point x="850.0" y="-258.0" name="inserted"/>
      <point x="889.0" y="-294.0"/>
      <point x="928" y="-294" type="qcurve" smooth="yes"/>
      <point x="952.0" y="-294.0" name="inserted"/>
      <point x="1002.0" y="-281.0"/>
      <point x="1028" y="-268" type="qcurve"/>
      <point x="1041" y="-389" type="line"/>
      <point x="1006.0" y="-411.0" name="inserted"/>
      <point x="926.0" y="-433.0"/>
      <point x="881" y="-433" type="qcurve" smooth="yes"/>
      <point x="792" y="-433"/>
      <point x="689" y="-329"/>
      <point x="689" y="-243" type="qcurve" smooth="yes"/>
      <point x="689.0" y="-174.0" name="inserted"/>
      <point x="766.5" y="-52.5"/>
      <point x="844" y="0" type="qcurve"/>
      <point x="169" y="0" type="line"/>
      <point x="169" y="1456" type="line"/>
      <point x="1084" y="1456" type="line"/>
      <point x="1084" y="1298" type="line"/>
      <point x="361" y="1298" type="line"/>
      <point x="361" y="830" type="line"/>
      <point x="992" y="830" type="line"/>
    </contour>
  </outline>
</glyph>
<glyph name="OE" format="2">
  <advance width="1953"/>
  <unicode hex="0152"/>
  <outline>
    <contour>
      <point x="1801" y="0" type="line"/>
      <point x="953" y="0" type="line"/>
      <point x="864.0" y="-10.5" name="inserted"/>
      <point x="718.0" y="-21.0"/>
      <point x="661" y="-21" type="qcurve" smooth="yes"/>
      <point x="499" y="-21"/>
      <point x="245" y="129"/>
      <point x="175.0" y="264.5" type="qcurve" smooth="yes" name="inserted"/>
      <point x="140.0" y="332.25" name="inserted"/>
      <point x="104.5" y="485.5"/>
      <point x="104" y="571" type="qcurve" smooth="yes"/>
      <point x="104" y="880" type="line" smooth="yes"/>
      <point x="104" y="1052"/>
      <point x="243" y="1325"/>
      <point x="370.0" y="1400.5" type="qcurve" smooth="yes" name="inserted"/>
      <point x="433.5" y="1438.25" name="inserted"/>
      <point x="578.0" y="1476.0"/>
      <point x="659" y="1476" type="qcurve" smooth="yes"/>
      <point x="721.0" y="1476.0" name="inserted"/>
      <point x="868.0" y="1466.0"/>
      <point x="953" y="1456" type="qcurve"/>
      <point x="1791" y="1456" type="line"/>
      <point x="1791" y="1298" type="line"/>
      <point x="1068" y="1298" type="line"/>
      <point x="1068" y="830" type="line"/>
      <point x="1699" y="830" type="line"/>
      <point x="1699" y="673" type="line"/>
      <point x="1068" y="673" type="line"/>
      <point x="1068" y="157" type="line"/>
      <point x="1801" y="157" type="line"/>
    </contour>
    <contour>
      <point x="661" y="130" type="qcurve" smooth="yes"/>
      <point x="717.5" y="130.0" name="inserted"/>
      <point x="825.0" y="137.0"/>
      <point x="876" y="144" type="qcurve"/>
      <point x="876" y="1310" type="line"/>
      <point x="821.5" y="1317.5" name="inserted"/>
      <point x="713.0" y="1325.0"/>
      <point x="659" y="1325" type="qcurve" smooth="yes"/>
      <point x="486" y="1325"/>
      <point x="292" y="1096"/>
      <point x="290" y="889" type="qcurve"/>
      <point x="290" y="576" type="line" smooth="yes"/>
      <point x="290" y="365"/>
      <point x="485" y="130"/>
    </contour>
  </outline>
</glyph>
<glyph name="uogonek" format="2">
  <advance width="1129"/>
  <unicode hex="0173"/>
  <outline>
    <contour>
      <point x="978" y="0" type="line"/>
      <point x="920" y="-45" type="line" smooth="yes"/>
      <point x="863.5" y="-90.5" name="inserted"/>
      <point x="807.0" y="-179.0"/>
      <point x="807" y="-222" type="qcurve" smooth="yes"/>
      <point x="807.0" y="-258.0" name="inserted"/>
      <point x="846.0" y="-294.0"/>
      <point x="885" y="-294" type="qcurve" smooth="yes"/>
      <point x="909.0" y="-294.0" name="inserted"/>
      <point x="959.0" y="-281.0"/>
      <point x="985" y="-268" type="qcurve"/>
      <point x="998" y="-389" type="line"/>
      <point x="963.0" y="-411.0" name="inserted"/>
      <point x="883.0" y="-433.0"/>
      <point x="838" y="-433" type="qcurve" smooth="yes"/>
      <point x="749" y="-433"/>
      <point x="646" y="-329"/>
      <point x="646" y="-243" type="qcurve" smooth="yes"/>
      <point x="646.0" y="-171.5" name="inserted"/>
      <point x="729.0" y="-47.0"/>
      <point x="812" y="6" type="qcurve"/>
      <point x="808" y="107" type="line"/>
      <point x="754.0" y="43.5" name="inserted"/>
      <point x="595.5" y="-20.0"/>
      <point x="491" y="-20" type="qcurve" smooth="yes"/>
      <point x="318" y="-20"/>
      <point x="137" y="181"/>
      <point x="136" y="378" type="qcurve" smooth="yes"/>
      <point x="136" y="1082" type="line"/>
      <point x="321" y="1082" type="line"/>
      <point x="321" y="383" type="line" smooth="yes"/>
      <point x="321.0" y="260.0" name="inserted"/>
      <point x="421.0" y="137.0"/>
      <point x="521" y="137" type="qcurve" smooth="yes"/>
      <point x="627.0" y="137.0" name="inserted"/>
      <point x="768.0" y="216.0"/>
      <point x="803" y="295" type="qcurve"/>
      <point x="803" y="1082" type="line"/>
      <point x="988" y="1082" type="line"/>
      <point x="988" y="0" type="line"/>
    </contour>
  </outline>
</glyph>
<glyph name="florin" format="2">
  <advance width="697"/>
  <unicode hex="0192"/>
  <outline>
    <contour>
      <point x="608" y="939" type="line"/>
      <point x="405" y="939" type="line"/>
      <point x="405" y="-87" type="line" smooth="yes"/>
      <point x="405" y="-254"/>
      <point x="237" y="-437"/>
      <point x="83" y="-437" type="qcurve" smooth="yes"/>
      <point x="52.5" y="-437.0" name="inserted"/>
      <point x="-3.0" y="-428.0"/>
      <point x="-28" y="-419" type="qcurve"/>
      <point x="-14" y="-272" type="line"/>
      <point x="1.0" y="-278.5" name="inserted"/>
      <point x="49.5" y="-285.0"/>
      <point x="83" y="-285" type="qcurve" smooth="yes"/>
      <point x="148" y="-285"/>
      <point x="219" y="-181"/>
      <point x="219" y="-89" type="qcurve" smooth="yes"/>
      <point x="219" y="939" type="line"/>
      <point x="48" y="939" type="line"/>
      <point x="48" y="1082" type="line"/>
      <point x="219" y="1082" type="line"/>
      <point x="219" y="1202" type="line" smooth="yes"/>
      <point x="221" y="1369"/>
      <point x="396" y="1557"/>
      <point x="557" y="1557" type="qcurve" smooth="yes"/>
      <point x="586.5" y="1557.0" name="inserted"/>
      <point x="658.0" y="1546.5"/>
      <point x="700" y="1536" type="qcurve"/>
      <point x="678" y="1389" type="line"/>
      <point x="659.0" y="1394.0" name="inserted"/>
      <point x="610.0" y="1399.0"/>
      <point x="580" y="1399" type="qcurve" smooth="yes"/>
      <point x="494.5" y="1399.0" name="inserted"/>
      <point x="407.0" y="1301.5"/>
      <point x="405" y="1204" type="qcurve"/>
      <point x="405" y="1082" type="line"/>
      <point x="608" y="1082" type="line"/>
    </contour>
  </outline>
</glyph>
<glyph name="ogonek" format="2">
  <advance width="554"/>
  <unicode hex="02DB"/>
  <outline>
    <contour>
      <point x="382" y="0" type="line"/>
      <point x="324" y="-45" type="line" smooth="yes"/>
      <point x="267.5" y="-90.5" name="inserted"/>
      <point x="211.0" y="-179.0"/>
      <point x="211" y="-222" type="qcurve" smooth="yes"/>
      <point x="211.0" y="-258.0" name="inserted"/>
      <point x="250.0" y="-294.0"/>
      <point x="289" y="-294" type="qcurve" smooth="yes"/>
      <point x="313.0" y="-294.0" name="inserted"/>
      <point x="363.0" y="-281.0"/>
      <point x="389" y="-268" type="qcurve"/>
      <point x="402" y="-389" type="line"/>
      <point x="367.0" y="-411.0" name="inserted"/>
      <point x="287.0" y="-433.0"/>
      <point x="242" y="-433" type="qcurve" smooth="yes"/>
      <point x="153" y="-433"/>
      <point x="50" y="-329"/>
      <point x="50" y="-243" type="qcurve" smooth="yes"/>
      <point x="50" y="-154"/>
      <point x="184" y="0"/>
      <point x="307" y="56" type="qcurve"/>
    </contour>
  </outline>
</glyph>
<glyph name="acutecomb" format="2">
  <unicode hex="0301"/>
  <outline>
    <contour>
      <point x="-464" y="1536" type="line"/>
      <point x="-240" y="1536" type="line"/>
      <point x="-508" y="1242" type="line"/>
      <point x="-657" y="1242" type="line"/>
    </contour>
  </outline>
</glyph>
<glyph name="dieresistonos" format="2">
  <advance width="1035"/>
  <unicode hex="0385"/>
  <outline>
    <contour>
      <point x="481" y="1672" type="line"/>
      <point x="669" y="1672" type="line"/>
      <point x="568" y="1408" type="line"/>
      <point x="433" y="1408" type="line"/>
    </contour>
    <contour>
      <point x="113" y="1371" type="qcurve" smooth="yes"/>
      <point x="113" y="1416"/>
      <point x="168" y="1477"/>
      <point x="222.0" y="1477.0" type="qcurve" smooth="yes" name="inserted"/>
      <point x="276" y="1477"/>
      <point x="332" y="1416"/>
      <point x="332.0" y="1371.0" type="qcurve" smooth="yes" name="inserted"/>
      <point x="332" y="1326"/>
      <point x="276" y="1266"/>
      <point x="222.0" y="1266.0" type="qcurve" smooth="yes" name="inserted"/>
      <point x="168" y="1266"/>
      <point x="113" y="1326"/>
    </contour>
    <contour>
      <point x="680" y="1369" type="qcurve" smooth="yes"/>
      <point x="680" y="1414"/>
      <point x="735" y="1476"/>
      <point x="789.0" y="1476.0" type="qcurve" smooth="yes" name="inserted"/>
      <point x="843" y="1476"/>
      <point x="899" y="1414"/>
      <point x="899.0" y="1369.0" type="qcurve" smooth="yes" name="inserted"/>
      <point x="899" y="1324"/>
      <point x="843" y="1264"/>
      <point x="789.0" y="1264.0" type="qcurve" smooth="yes" name="inserted"/>
      <point x="735" y="1264"/>
      <point x="680" y="1324"/>
    </contour>
  </outline>
</glyph>
<glyph name="Theta" format="2">
  <advance width="1393"/>
  <unicode hex="0398"/>
  <outline>
    <contour>
      <point x="960" y="659" type="line"/>
      <point x="443" y="659" type="line"/>
      <point x="443" y="811" type="line"/>
      <point x="960" y="811" type="line"/>
    </contour>
    <contour>
      <point x="1274" y="681" type="line" smooth="yes"/>
      <point x="1274" y="468"/>
      <point x="1131" y="150"/>
      <point x="999.0" y="65.0" type="qcurve" smooth="yes" name="inserted"/>
      <point x="933.0" y="22.5" name="inserted"/>
      <point x="778.5" y="-20.0"/>
      <point x="690" y="-20" type="qcurve" smooth="yes"/>
      <point x="518" y="-20"/>
      <point x="252" y="149"/>
      <point x="178.5" y="305.5" type="qcurve" smooth="yes" name="inserted"/>
      <point x="141.75" y="383.75" name="inserted"/>
      <point x="104.0" y="565.0"/>
      <point x="103" y="668" type="qcurve" smooth="yes"/>
      <point x="103" y="773" type="line" smooth="yes"/>
      <point x="103" y="983"/>
      <point x="249" y="1305"/>
      <point x="382.5" y="1390.5" type="qcurve" smooth="yes" name="inserted"/>
      <point x="449.25" y="1433.25" name="inserted"/>
      <point x="602.0" y="1476.0"/>
      <point x="688" y="1476" type="qcurve" smooth="yes"/>
      <point x="863" y="1476"/>
      <point x="1127" y="1308"/>
      <point x="1199.5" y="1150.5" type="qcurve" smooth="yes" name="inserted"/>
      <point x="1235.75" y="1071.75" name="inserted"/>
      <point x="1273.0" y="889.5"/>
      <point x="1274" y="786" type="qcurve" smooth="yes"/>
    </contour>
    <contour>
      <point x="1083" y="775" type="line" smooth="yes"/>
      <point x="1083" y="1034"/>
      <point x="875" y="1311"/>
      <point x="688" y="1311" type="qcurve" smooth="yes"/>
      <point x="506" y="1311"/>
      <point x="297" y="1034"/>
      <point x="294" y="788" type="qcurve"/>
      <point x="294" y="681" type="line" smooth="yes"/>
      <point x="294" y="431"/>
      <point x="503" y="143"/>
      <point x="690" y="143" type="qcurve" smooth="yes"/>
      <point x="876" y="143"/>
      <point x="1080" y="414"/>
      <point x="1083" y="667" type="qcurve" smooth="yes"/>
    </contour>
  </outline>
</glyph>
<glyph name="Sigma" format="2">
  <advance width="1169"/>
  <unicode hex="03A3"/>
  <outline>
    <contour>
      <point x="754" y="718" type="line"/>
      <point x="309" y="157" type="line"/>
      <point x="1092" y="157" type="line"/>
      <point x="1092" y="0" type="line"/>
      <point x="69" y="0" type="line"/>
      <point x="69" y="143" type="line"/>
      <point x="550" y="729" type="line"/>
      <point x="69" y="1312" type="line"/>
      <point x="69" y="1456" type="line"/>
      <point x="1043" y="1456" type="line"/>
      <point x="1043" y="1298" type="line"/>
      <point x="311" y="1298" type="line"/>
      <point x="754" y="742" type="line"/>
    </contour>
  </outline>
</glyph>
<glyph name="beta" format="2">
  <advance width="1213"/>
  <unicode hex="03B2"/>
  <outline>
    <contour>
      <point x="605" y="1476" type="qcurve" smooth="yes"/>
      <point x="798" y="1476"/>
      <point x="1033" y="1257"/>
      <point x="1033" y="1083" type="qcurve" smooth="yes"/>
      <point x="1033" y="992"/>
      <point x="935" y="840"/>
      <point x="847" y="794" type="qcurve"/>
      <point x="970" y="749"/>
      <point x="1101" y="554"/>
      <point x="1101" y="424" type="qcurve" smooth="yes"/>
      <point x="1101" y="219"/>
      <point x="852" y="-20"/>
      <point x="647" y="-20" type="qcurve" smooth="yes"/>
      <point x="556.5" y="-20.0" name="inserted"/>
      <point x="406.0" y="27.5"/>
      <point x="346" y="75" type="qcurve"/>
      <point x="346" y="-384" type="line"/>
      <point x="160" y="-384" type="line"/>
      <point x="160" y="1073" type="line" smooth="yes"/>
      <point x="160" y="1181"/>
      <point x="282" y="1369"/>
      <point x="385.5" y="1422.5" type="qcurve" smooth="yes" name="inserted"/>
      <point x="437.25" y="1449.25" name="inserted"/>
      <point x="547.0" y="1476.0"/>
    </contour>
    <contour>
      <point x="848" y="1087" type="qcurve" smooth="yes"/>
      <point x="848" y="1189"/>
      <point x="712" y="1324"/>
      <point x="605" y="1324" type="qcurve" smooth="yes"/>
      <point x="497" y="1324"/>
      <point x="347" y="1182"/>
      <point x="346" y="1075" type="qcurve"/>
      <point x="346" y="246" type="line"/>
      <point x="390" y="194"/>
      <point x="534" y="131"/>
      <point x="628" y="131" type="qcurve" smooth="yes"/>
      <point x="762" y="131"/>
      <point x="916" y="291"/>
      <point x="916" y="420" type="qcurve" smooth="yes"/>
      <point x="916" y="538"/>
      <point x="776" y="703"/>
      <point x="667" y="706" type="qcurve" smooth="yes"/>
      <point x="517" y="706" type="line"/>
      <point x="517" y="858" type="line"/>
      <point x="602" y="858" type="line" smooth="yes"/>
      <point x="722" y="858"/>
      <point x="848" y="977"/>
    </contour>
  </outline>
</glyph>
<glyph name="delta" format="2">
  <advance width="1160"/>
  <unicode hex="03B4"/>
  <outline>
    <contour>
      <point x="221" y="1269" type="qcurve" smooth="yes"/>
      <point x="221" y="1405"/>
      <point x="424" y="1564"/>
      <point x="599" y="1564" type="qcurve" smooth="yes"/>
      <point x="668.5" y="1564.0" name="inserted"/>
      <point x="805.0" y="1536.5"/>
      <point x="872" y="1509" type="qcurve"/>
      <point x="870" y="1349" type="line"/>
      <point x="794.5" y="1378.5" name="inserted"/>
      <point x="657.0" y="1408.0"/>
      <point x="595" y="1408" type="qcurve" smooth="yes"/>
      <point x="509" y="1408"/>
      <point x="408" y="1336"/>
      <point x="408" y="1274" type="qcurve" smooth="yes"/>
      <point x="408" y="1166"/>
      <point x="851" y="1013"/>
      <point x="954.5" y="878.5" type="qcurve" smooth="yes" name="inserted"/>
      <point x="1006.25" y="811.25" name="inserted"/>
      <point x="1060.5" y="646.0"/>
      <point x="1063" y="548" type="qcurve" smooth="yes"/>
      <point x="1063" y="509" type="line" smooth="yes"/>
      <point x="1063" y="356"/>
      <point x="945" y="113"/>
      <point x="835.5" y="46.5" type="qcurve" smooth="yes" name="inserted"/>
      <point x="780.75" y="13.25" name="inserted"/>
      <point x="653.5" y="-20.0"/>
      <point x="581" y="-20" type="qcurve" smooth="yes"/>
      <point x="359" y="-20"/>
      <point x="96" y="275"/>
      <point x="96" y="517" type="qcurve" smooth="yes"/>
      <point x="96" y="530" type="line" smooth="yes"/>
      <point x="96" y="695"/>
      <point x="284" y="959"/>
      <point x="428" y="994" type="qcurve"/>
      <point x="427" y="999" type="line"/>
      <point x="328" y="1038"/>
      <point x="221" y="1178"/>
    </contour>
    <contour>
      <point x="283" y="509" type="qcurve" smooth="yes"/>
      <point x="283" y="333"/>
      <point x="444" y="130"/>
      <point x="581" y="130" type="qcurve" smooth="yes"/>
      <point x="717" y="130"/>
      <point x="877" y="332"/>
      <point x="877" y="530" type="qcurve" smooth="yes"/>
      <point x="877" y="666"/>
      <point x="708" y="885"/>
      <point x="583" y="910" type="qcurve"/>
      <point x="447" y="910"/>
      <point x="283" y="705"/>
    </contour>
  </outline>
</glyph>
<glyph name="sigma1" format="2">
  <advance width="1101"/>
  <unicode hex="03C2"/>
  <outline>
    <contour>
      <point x="573" y="1102" type="qcurve" smooth="yes"/>
      <point x="762" y="1102"/>
      <point x="993" y="889"/>
      <point x="993" y="709" type="qcurve"/>
      <point x="818" y="709" type="line"/>
      <point x="818" y="819"/>
      <point x="684" y="950"/>
      <point x="573" y="950" type="qcurve" smooth="yes"/>
      <point x="441" y="950"/>
      <point x="286" y="731"/>
      <point x="286" y="552" type="qcurve" smooth="yes"/>
      <point x="286" y="520" type="line" smooth="yes"/>
      <point x="286.0" y="390.0" name="inserted"/>
      <point x="446.0" y="210.5"/>
      <point x="606" y="161" type="qcurve" smooth="yes"/>
      <point x="740" y="123" type="line" smooth="yes"/>
      <point x="838" y="94"/>
      <point x="918" y="-2"/>
      <point x="918" y="-82" type="qcurve"/>
      <point x="916" y="-145"/>
      <point x="817" y="-312"/>
      <point x="743" y="-374" type="qcurve"/>
      <point x="645" y="-289" type="line"/>
      <point x="692" y="-235" type="line" smooth="yes"/>
      <point x="716.5" y="-205.0" name="inserted"/>
      <point x="741.0" y="-140.0"/>
      <point x="741" y="-105" type="qcurve" smooth="yes"/>
      <point x="741" y="-62"/>
      <point x="671" y="-19"/>
      <point x="585" y="0" type="qcurve" smooth="yes"/>
      <point x="349" y="52"/>
      <point x="101" y="309"/>
      <point x="101" y="520" type="qcurve" smooth="yes"/>
      <point x="101" y="562" type="line" smooth="yes"/>
      <point x="101" y="714"/>
      <point x="220" y="965"/>
      <point x="327.5" y="1033.5" type="qcurve" smooth="yes" name="inserted"/>
      <point x="381.25" y="1067.75" name="inserted"/>
      <point x="504.0" y="1102.0"/>
    </contour>
  </outline>
</glyph>
<glyph name="upsilon" format="2">
  <advance width="1117"/>
  <unicode hex="03C5"/>
  <outline>
    <contour>
      <point x="329" y="1082" type="line"/>
      <point x="329" y="435" type="line" smooth="yes"/>
      <point x="329.0" y="282.5" name="inserted"/>
      <point x="429.5" y="130.0"/>
      <point x="530" y="130" type="qcurve" smooth="yes"/>
      <point x="659" y="130"/>
      <point x="829" y="380"/>
      <point x="829" y="562" type="qcurve" smooth="yes"/>
      <point x="826.5" y="677.5" name="inserted"/>
      <point x="765.0" y="937.5"/>
      <point x="706" y="1082" type="qcurve"/>
      <point x="901" y="1082" type="line"/>
      <point x="957.5" y="961.5" name="inserted"/>
      <point x="1014.0" y="701.5"/>
      <point x="1014" y="562" type="qcurve" smooth="yes"/>
      <point x="1014" y="299"/>
      <point x="757" y="-20"/>
      <point x="539" y="-20" type="qcurve" smooth="yes"/>
      <point x="345" y="-20"/>
      <point x="145" y="204"/>
      <point x="143" y="419" type="qcurve" smooth="yes"/>
      <point x="143" y="1082" type="line"/>
    </contour>
  </outline>
</glyph>
<glyph name="phi" format="2">
  <advance width="1443"/>
  <unicode hex="03C6"/>
  <outline>
    <contour>
      <point x="620" y="-17" type="line"/>
      <point x="364" y="6"/>
      <point x="87" y="313"/>
      <point x="87" y="564" type="qcurve" smooth="yes"/>
      <point x="87" y="732"/>
      <point x="216" y="995"/>
      <point x="343" y="1082" type="qcurve"/>
      <point x="444" y="949" type="line"/>
      <point x="363.5" y="879.0" name="inserted"/>
      <point x="278.0" y="686.5"/>
      <point x="273" y="564" type="qcurve"/>
      <point x="273" y="391"/>
      <point x="454" y="162"/>
      <point x="620" y="136" type="qcurve"/>
      <point x="620" y="852" type="line" smooth="yes"/>
      <point x="620" y="957"/>
      <point x="758" y="1082"/>
      <point x="871" y="1082" type="qcurve" smooth="yes"/>
      <point x="1001" y="1082"/>
      <point x="1226" y="941"/>
      <point x="1291.0" y="817.0" type="qcurve" smooth="yes" name="inserted"/>
      <point x="1323.5" y="755.0" name="inserted"/>
      <point x="1356.0" y="618.5"/>
      <point x="1356" y="544" type="qcurve" smooth="yes"/>
      <point x="1356" y="301"/>
      <point x="1066" y="4"/>
      <point x="805" y="-17" type="qcurve"/>
      <point x="805" y="-478" type="line"/>
      <point x="620" y="-478" type="line"/>
    </contour>
    <contour>
      <point x="805" y="136" type="line"/>
      <point x="975" y="158"/>
      <point x="1171" y="380"/>
      <point x="1171" y="544" type="qcurve" smooth="yes"/>
      <point x="1166" y="713"/>
      <point x="1001" y="929"/>
      <point x="871" y="929" type="qcurve" smooth="yes"/>
      <point x="838.0" y="929.0" name="inserted"/>
      <point x="805.0" y="888.0"/>
      <point x="805" y="847" type="qcurve" smooth="yes"/>
    </contour>
  </outline>
</glyph>
<glyph name="omega" format="2">
  <advance width="1687"/>
  <unicode hex="03C9"/>
  <outline>
    <contour>
      <point x="452" y="1082" type="line"/>
      <point x="383.0" y="940.5" name="inserted"/>
      <point x="310.5" y="679.5"/>
      <point x="307" y="560" type="qcurve"/>
      <point x="307" y="357"/>
      <point x="421" y="130"/>
      <point x="527" y="130" type="qcurve" smooth="yes"/>
      <point x="635" y="130"/>
      <point x="748" y="303"/>
      <point x="748" y="469" type="qcurve" smooth="yes"/>
      <point x="748" y="770" type="line"/>
      <point x="935" y="770" type="line"/>
      <point x="935" y="464" type="line" smooth="yes"/>
      <point x="936" y="300"/>
      <point x="1049" y="130"/>
      <point x="1156" y="130" type="qcurve" smooth="yes"/>
      <point x="1262" y="130"/>
      <point x="1376" y="356"/>
      <point x="1376" y="560" type="qcurve" smooth="yes"/>
      <point x="1372.5" y="679.5" name="inserted"/>
      <point x="1300.0" y="940.5"/>
      <point x="1231" y="1082" type="qcurve"/>
      <point x="1426" y="1082" type="line"/>
      <point x="1493.5" y="960.0" name="inserted"/>
      <point x="1561.0" y="699.0"/>
      <point x="1561" y="560" type="qcurve" smooth="yes"/>
      <point x="1561" y="285"/>
      <point x="1354" y="-20"/>
      <point x="1166" y="-20" type="qcurve" smooth="yes"/>
      <point x="1046.0" y="-20.0" name="inserted"/>
      <point x="883.5" y="99.0"/>
      <point x="841" y="218" type="qcurve"/>
      <point x="800" y="101"/>
      <point x="636" y="-20"/>
      <point x="517" y="-20" type="qcurve" smooth="yes"/>
      <point x="329" y="-20"/>
      <point x="122" y="285"/>
      <point x="122" y="560" type="qcurve" smooth="yes"/>
      <point x="122.0" y="703.5" name="inserted"/>
      <point x="189.5" y="964.5"/>
      <point x="257" y="1082" type="qcurve"/>
    </contour>
  </outline>
</glyph>
<glyph name="theta1" format="2">
  <advance width="1185"/>
  <unicode hex="03D1"/>
  <outline>
    <contour>
      <point x="1145" y="627" type="line"/>
      <point x="1115.0" y="615.5" name="inserted"/>
      <point x="1043.5" y="599.5"/>
      <point x="1002" y="595" type="qcurve"/>
      <point x="1002" y="429" type="line"/>
      <point x="1000" y="218"/>
      <point x="771" y="-20"/>
      <point x="571" y="-20" type="qcurve" smooth="yes"/>
      <point x="368" y="-20"/>
      <point x="121" y="227"/>
      <point x="121" y="442" type="qcurve" smooth="yes"/>
      <point x="121" y="769" type="line"/>
      <point x="307" y="771" type="line"/>
      <point x="307" y="435" type="line" smooth="yes"/>
      <point x="307" y="292"/>
      <point x="447" y="137"/>
      <point x="571" y="137" type="qcurve" smooth="yes"/>
      <point x="687" y="137"/>
      <point x="817" y="283"/>
      <point x="817" y="435" type="qcurve" smooth="yes"/>
      <point x="817" y="601" type="line"/>
      <point x="600" y="632"/>
      <point x="331" y="914"/>
      <point x="331" y="1131" type="qcurve" smooth="yes"/>
      <point x="331" y="1291"/>
      <point x="515" y="1478"/>
      <point x="665" y="1478" type="qcurve" smooth="yes"/>
      <point x="824" y="1478"/>
      <point x="1002" y="1281"/>
      <point x="1002" y="1103" type="qcurve" smooth="yes"/>
      <point x="1002" y="752" type="line"/>
      <point x="1033.5" y="754.5" name="inserted"/>
      <point x="1101.0" y="766.5"/>
      <point x="1137" y="776" type="qcurve"/>
    </contour>
    <contour>
      <point x="517" y="1114" type="line" smooth="yes"/>
      <point x="517" y="981"/>
      <point x="679" y="792"/>
      <point x="817" y="762" type="qcurve"/>
      <point x="817" y="1122" type="line" smooth="yes"/>
      <point x="814.5" y="1221.0" name="inserted"/>
      <point x="738.5" y="1320.0"/>
      <point x="665" y="1320" type="qcurve" smooth="yes"/>
      <point x="591.0" y="1320.0" name="inserted"/>
      <point x="517.0" y="1222.0"/>
      <point x="517" y="1124" type="qcurve" smooth="yes"/>
    </contour>
  </outline>
</glyph>
<glyph name="uni0402" format="2">
  <advance width="1535"/>
  <unicode hex="0402"/>
  <outline>
    <contour>
      <point x="1172" y="1298" type="line"/>
      <point x="650" y="1298" type="line"/>
      <point x="650" y="843" type="line"/>
      <point x="728.5" y="867.0" name="inserted"/>
      <point x="873.0" y="891.0"/>
      <point x="939" y="891" type="qcurve" smooth="yes"/>
      <point x="1183" y="891"/>
      <point x="1457" y="650"/>
      <point x="1457.0" y="433.0" type="qcurve" smooth="yes" name="inserted"/>
      <point x="1457" y="216"/>
      <point x="1197" y="-11"/>
      <point x="960" y="-11" type="qcurve"/>
      <point x="958" y="139" type="line"/>
      <point x="1113" y="139"/>
      <point x="1265" y="284"/>
      <point x="1265" y="432" type="qcurve" smooth="yes"/>
      <point x="1263" y="574"/>
      <point x="1100" y="724"/>
      <point x="938" y="724" type="qcurve" smooth="yes"/>
      <point x="863.0" y="724.0" name="inserted"/>
      <point x="719.0" y="701.0"/>
      <point x="650" y="678" type="qcurve"/>
      <point x="650" y="0" type="line"/>
      <point x="457" y="0" type="line"/>
      <point x="457" y="1298" type="line"/>
      <point x="42" y="1298" type="line"/>
      <point x="42" y="1456" type="line"/>
      <point x="1172" y="1456" type="line"/>
    </contour>
  </outline>
</glyph>
<glyph name="uni0405" format="2">
  <advance width="1215"/>
  <unicode hex="0405"/>
  <outline>
    <contour>
      <point x="598" y="649" type="qcurve" smooth="yes"/>
      <point x="351" y="720"/>
      <point x="126" y="927"/>
      <point x="126" y="1079" type="qcurve" smooth="yes"/>
      <point x="126" y="1251"/>
      <point x="401" y="1476"/>
      <point x="621" y="1476" type="qcurve" smooth="yes"/>
      <point x="771" y="1476"/>
      <point x="1006" y="1360"/>
      <point x="1070.5" y="1258.0" type="qcurve" smooth="yes" name="inserted"/>
      <point x="1102.75" y="1207.0" name="inserted"/>
      <point x="1135.0" y="1095.5"/>
      <point x="1135" y="1035" type="qcurve"/>
      <point x="942" y="1035" type="line"/>
      <point x="942" y="1167"/>
      <point x="774" y="1318"/>
      <point x="621" y="1318" type="qcurve" smooth="yes"/>
      <point x="479" y="1318"/>
      <point x="320" y="1193"/>
      <point x="320" y="1082" type="qcurve" smooth="yes"/>
      <point x="320" y="993"/>
      <point x="471" y="870"/>
      <point x="652.5" y="819.0" type="qcurve" smooth="yes" name="inserted"/>
      <point x="834" y="768"/>
      <point x="1039" y="645"/>
      <point x="1088.5" y="563.0" type="qcurve" smooth="yes" name="inserted"/>
      <point x="1113.25" y="522.0" name="inserted"/>
      <point x="1138.0" y="425.5"/>
      <point x="1138" y="370" type="qcurve" smooth="yes"/>
      <point x="1138" y="193"/>
      <point x="862" y="-20"/>
      <point x="631" y="-20" type="qcurve" smooth="yes"/>
      <point x="481" y="-20"/>
      <point x="221" y="95"/>
      <point x="150.5" y="195.0" type="qcurve" smooth="yes" name="inserted"/>
      <point x="115.25" y="245.0" name="inserted"/>
      <point x="80.0" y="358.5"/>
      <point x="80" y="422" type="qcurve"/>
      <point x="273" y="422" type="line"/>
      <point x="273" y="290"/>
      <point x="468" y="137"/>
      <point x="631" y="137" type="qcurve" smooth="yes"/>
      <point x="783" y="137"/>
      <point x="945" y="261"/>
      <point x="945.0" y="368.0" type="qcurve" smooth="yes" name="inserted"/>
      <point x="945" y="475"/>
      <point x="795" y="592"/>
    </contour>
  </outline>
</glyph>
<glyph name="uni0417" format="2">
  <advance width="1215"/>
  <unicode hex="0417"/>
  <outline>
    <contour>
      <point x="916" y="1065" type="qcurve" smooth="yes"/>
      <point x="916" y="1181"/>
      <point x="747" y="1318"/>
      <point x="594" y="1318" type="qcurve" smooth="yes"/>
      <point x="466" y="1318"/>
      <point x="293" y="1177"/>
      <point x="293" y="1073" type="qcurve"/>
      <point x="101" y="1073" type="line"/>
      <point x="101" y="1189"/>
      <point x="228" y="1373"/>
      <point x="342.0" y="1424.5" type="qcurve" smooth="yes" name="inserted"/>
      <point x="399.0" y="1450.25" name="inserted"/>
      <point x="525.0" y="1476.0"/>
      <point x="594" y="1476" type="qcurve" smooth="yes"/>
      <point x="838" y="1476"/>
      <point x="1108" y="1257"/>
      <point x="1108" y="1062" type="qcurve" smooth="yes"/>
      <point x="1108" y="961"/>
      <point x="984" y="795"/>
      <point x="873" y="747" type="qcurve"/>
      <point x="1001.5" y="704.0" name="inserted"/>
      <point x="1130.0" y="533.5"/>
      <point x="1130" y="406" type="qcurve" smooth="yes"/>
      <point x="1130" y="210"/>
      <point x="838" y="-20"/>
      <point x="594" y="-20" type="qcurve" smooth="yes"/>
      <point x="449" y="-20"/>
      <point x="212" y="83"/>
      <point x="146.0" y="178.0" type="qcurve" smooth="yes" name="inserted"/>
      <point x="113.0" y="225.5" name="inserted"/>
      <point x="80.0" y="338.5"/>
      <point x="80" y="404" type="qcurve"/>
      <point x="272" y="404" type="line"/>
      <point x="272" y="289"/>
      <point x="454" y="136"/>
      <point x="594" y="136" type="qcurve" smooth="yes"/>
      <point x="751" y="136"/>
      <point x="938" y="282"/>
      <point x="938" y="402" type="qcurve" smooth="yes"/>
      <point x="938.0" y="530.0" name="inserted"/>
      <point x="779.5" y="660.5"/>
      <point x="621" y="663" type="qcurve" smooth="yes"/>
      <point x="441" y="663" type="line"/>
      <point x="441" y="821" type="line"/>
      <point x="620" y="821" type="line" smooth="yes"/>
      <point x="766" y="824"/>
      <point x="916" y="950"/>
    </contour>
  </outline>
</glyph>
<glyph name="uni0426" format="2">
  <advance width="1497"/>
  <unicode hex="0426"/>
  <outline>
    <contour>
      <point x="175" y="1456" type="line"/>
      <point x="368" y="1456" type="line"/>
      <point x="368" y="157" type="line"/>
      <point x="1086" y="157" type="line"/>
      <point x="1086" y="1456" type="line"/>
      <point x="1278" y="1456" type="line"/>
      <point x="1278" y="161" type="line"/>
      <point x="1431" y="161" type="line"/>
      <point x="1413" y="-351" type="line"/>
      <point x="1240" y="-351" type="line"/>
      <point x="1240" y="0" type="line"/>
      <point x="175" y="0" type="line"/>
    </contour>
  </outline>
</glyph>
<glyph name="uni042A" format="2">
  <advance width="1554"/>
  <unicode hex="042A"/>
  <outline>
    <contour>
      <point x="16" y="1456" type="line"/>
      <point x="619" y="1456" type="line"/>
      <point x="619" y="862" type="line"/>
      <point x="965" y="862" type="line" smooth="yes"/>
      <point x="1204" y="862"/>
      <point x="1464" y="633"/>
      <point x="1464" y="435" type="qcurve" smooth="yes"/>
      <point x="1464" y="238"/>
      <point x="1206" y="3"/>
      <point x="980" y="0" type="qcurve" smooth="yes"/>
      <point x="426" y="0" type="line"/>
      <point x="426" y="1304" type="line"/>
      <point x="16" y="1304" type="line"/>
    </contour>
    <contour>
      <point x="619" y="704" type="line"/>
      <point x="619" y="157" type="line"/>
      <point x="970" y="157" type="line" smooth="yes"/>
      <point x="1112" y="157"/>
      <point x="1271" y="309"/>
      <point x="1271" y="437" type="qcurve" smooth="yes"/>
      <point x="1271" y="560"/>
      <point x="1118" y="702"/>
      <point x="978" y="704" type="qcurve" smooth="yes"/>
    </contour>
  </outline>
</glyph>
<glyph name="uni0431" format="2">
  <advance width="1132"/>
  <unicode hex="0431"/>
  <outline>
    <contour>
      <point x="615" y="1020" type="qcurve" smooth="yes"/>
      <point x="819" y="1020"/>
      <point x="1064" y="747"/>
      <point x="1064" y="524" type="qcurve" smooth="yes"/>
      <point x="1064" y="507" type="line" smooth="yes"/>
      <point x="1064" y="354"/>
      <point x="946" y="113"/>
      <point x="835.5" y="46.5" type="qcurve" smooth="yes" name="inserted"/>
      <point x="780.25" y="13.25" name="inserted"/>
      <point x="653.0" y="-20.0"/>
      <point x="581" y="-20" type="qcurve" smooth="yes"/>
      <point x="363" y="-20"/>
      <point x="97" y="271"/>
      <point x="97" y="516" type="qcurve" smooth="yes"/>
      <point x="97" y="606" type="line" smooth="yes"/>
      <point x="97" y="947"/>
      <point x="350" y="1349"/>
      <point x="597" y="1393" type="qcurve" smooth="yes"/>
      <point x="737" y="1418"/>
      <point x="835" y="1490"/>
      <point x="835" y="1553" type="qcurve"/>
      <point x="987" y="1553" type="line"/>
      <point x="987" y="1428"/>
      <point x="874" y="1288"/>
      <point x="750" y="1259" type="qcurve" smooth="yes"/>
      <point x="612" y="1228" type="line" smooth="yes"/>
      <point x="447" y="1189"/>
      <point x="282" y="1004"/>
      <point x="257" y="850" type="qcurve"/>
      <point x="330.5" y="935.0" name="inserted"/>
      <point x="509.5" y="1020.0"/>
    </contour>
    <contour>
      <point x="579" y="868" type="qcurve" smooth="yes"/>
      <point x="443" y="868"/>
      <point x="283" y="685"/>
      <point x="283" y="523" type="qcurve" smooth="yes"/>
      <point x="283" y="507" type="line" smooth="yes"/>
      <point x="283" y="333"/>
      <point x="444" y="130"/>
      <point x="581" y="130" type="qcurve" smooth="yes"/>
      <point x="719" y="130"/>
      <point x="879" y="334"/>
      <point x="879" y="530" type="qcurve" smooth="yes"/>
      <point x="879" y="683"/>
      <point x="718" y="868"/>
    </contour>
  </outline>
</glyph>
<glyph name="uni0433" format="2">
  <advance width="859"/>
  <unicode hex="0433"/>
  <outline>
    <contour>
      <point x="839" y="929" type="line"/>
      <point x="340" y="929" type="line"/>
      <point x="340" y="0" type="line"/>
      <point x="154" y="0" type="line"/>
      <point x="154" y="1082" type="line"/>
      <point x="839" y="1082" type="line"/>
    </contour>
  </outline>
</glyph>
<glyph name="uni0434" format="2">
  <advance width="1236"/>
  <unicode hex="0434"/>
  <outline>
    <contour>
      <point x="131" y="151" type="line"/>
      <point x="195" y="230" type="line" smooth="yes"/>
      <point x="249.0" y="300.0" name="inserted"/>
      <point x="310.5" y="510.0"/>
      <point x="318" y="650" type="qcurve" smooth="yes"/>
      <point x="335" y="1082" type="line"/>
      <point x="1032" y="1082" type="line"/>
      <point x="1032" y="151" type="line"/>
      <point x="1171" y="151" type="line"/>
      <point x="1171" y="-318" type="line"/>
      <point x="986" y="-318" type="line"/>
      <point x="986" y="0" type="line"/>
      <point x="231" y="0" type="line"/>
      <point x="231" y="-318" type="line"/>
      <point x="46" y="-318" type="line"/>
      <point x="47" y="151" type="line"/>
    </contour>
    <contour>
      <point x="350" y="151" type="qcurve"/>
      <point x="847" y="151" type="line"/>
      <point x="847" y="911" type="line"/>
      <point x="514" y="911" type="line"/>
      <point x="503" y="653" type="line" smooth="yes"/>
      <point x="494.5" y="491.5" name="inserted"/>
      <point x="418.0" y="240.5"/>
    </contour>
  </outline>
</glyph>
<glyph name="uni043B" format="2">
  <advance width="1184"/>
  <unicode hex="043B"/>
  <outline>
    <contour>
      <point x="1027" y="1082" type="line"/>
      <point x="1027" y="0" type="line"/>
      <point x="841" y="0" type="line"/>
      <point x="841" y="929" type="line"/>
      <point x="473" y="929" type="line"/>
      <point x="451" y="524" type="line" smooth="yes"/>
      <point x="433" y="245"/>
      <point x="282" y="5"/>
      <point x="118" y="0" type="qcurve" smooth="yes"/>
      <point x="44" y="0" type="line"/>
      <point x="44" y="163" type="line"/>
      <point x="97" y="167" type="line" smooth="yes"/>
      <point x="187" y="177"/>
      <point x="265" y="365"/>
      <point x="276" y="619" type="qcurve" smooth="yes"/>
      <point x="296" y="1082" type="line"/>
    </contour>
  </outline>
</glyph>
<glyph name="uni0444" format="2">
  <advance width="1485"/>
  <unicode hex="0444"/>
  <outline>
    <contour>
      <point x="100" y="521" type="line" smooth="yes"/>
      <point x="100" y="792"/>
      <point x="310" y="1102"/>
      <point x="493" y="1102" type="qcurve" smooth="yes"/>
      <point x="535.5" y="1102.0" name="inserted"/>
      <point x="610.0" y="1087.5"/>
      <point x="642" y="1073" type="qcurve"/>
      <point x="642" y="1536" type="line"/>
      <point x="827" y="1536" type="line"/>
      <point x="827" y="1067" type="line"/>
      <point x="862.0" y="1084.5" name="inserted"/>
      <point x="944.0" y="1102.0"/>
      <point x="991" y="1102" type="qcurve" smooth="yes"/>
      <point x="1175" y="1102"/>
      <point x="1385" y="792"/>
      <point x="1385" y="500" type="qcurve" smooth="yes"/>
      <point x="1385" y="261"/>
      <point x="1176" y="-21"/>
      <point x="993" y="-21" type="qcurve" smooth="yes"/>
      <point x="944.5" y="-21.0" name="inserted"/>
      <point x="861.5" y="-5.0"/>
      <point x="827" y="11" type="qcurve"/>
      <point x="827" y="-416" type="line"/>
      <point x="642" y="-416" type="line"/>
      <point x="642" y="8" type="line"/>
      <point x="609.0" y="-6.5" name="inserted"/>
      <point x="533.5" y="-21.0"/>
      <point x="491" y="-21" type="qcurve" smooth="yes"/>
      <point x="309" y="-21"/>
      <point x="100" y="261"/>
      <point x="100" y="506" type="qcurve" smooth="yes"/>
    </contour>
    <contour>
      <point x="1200" y="521" type="qcurve" smooth="yes"/>
      <point x="1200" y="725"/>
      <point x="1060" y="950"/>
      <point x="937" y="950" type="qcurve" smooth="yes"/>
      <point x="905.5" y="950.0" name="inserted"/>
      <point x="850.5" y="940.0"/>
      <point x="827" y="930" type="qcurve"/>
      <point x="827" y="147" type="line"/>
      <point x="849.5" y="138.5" name="inserted"/>
      <point x="905.5" y="130.0"/>
      <point x="939" y="130" type="qcurve" smooth="yes"/>
      <point x="1063" y="130"/>
      <point x="1200" y="322"/>
    </contour>
    <contour>
      <point x="285" y="500" type="qcurve" smooth="yes"/>
      <point x="285" y="318"/>
      <point x="415" y="130"/>
      <point x="537" y="130" type="qcurve" smooth="yes"/>
      <point x="566.0" y="130.0" name="inserted"/>
      <point x="618.5" y="139.0"/>
      <point x="642" y="148" type="qcurve"/>
      <point x="642" y="933" type="line"/>
      <point x="621.0" y="941.5" name="inserted"/>
      <point x="569.5" y="950.0"/>
      <point x="539" y="950" type="qcurve" smooth="yes"/>
      <point x="417" y="950"/>
      <point x="285" y="732"/>
    </contour>
  </outline>
</glyph>
<glyph name="uni0449" format="2">
  <advance width="1694"/>
  <unicode hex="0449"/>
  <outline>
    <contour>
      <point x="331" y="1082" type="line"/>
      <point x="331" y="151" type="line"/>
      <point x="727" y="151" type="line"/>
      <point x="727" y="1082" type="line"/>
      <point x="912" y="1082" type="line"/>
      <point x="912" y="151" type="line"/>
      <point x="1307" y="151" type="line"/>
      <point x="1307" y="1082" type="line"/>
      <point x="1493" y="1082" type="line"/>
      <point x="1493" y="151" type="line"/>
      <point x="1645" y="151" type="line"/>
      <point x="1627" y="-321" type="line"/>
      <point x="1461" y="-321" type="line"/>
      <point x="1461" y="0" type="line"/>
      <point x="145" y="0" type="line"/>
      <point x="145" y="1082" type="line"/>
    </contour>
  </outline>
</glyph>
<glyph name="uni044E" format="2">
  <advance width="1671"/>
  <unicode hex="044E"/>
  <outline>
    <contour>
      <point x="342" y="623" type="line"/>
      <point x="602" y="623" type="line"/>
      <point x="623" y="839"/>
      <point x="888" y="1102"/>
      <point x="1090" y="1102" type="qcurve" smooth="yes"/>
      <point x="1302" y="1102"/>
      <point x="1572" y="816"/>
      <point x="1583" y="587" type="qcurve" smooth="yes"/>
      <point x="1584" y="529" type="line" smooth="yes"/>
      <point x="1584" y="371"/>
      <point x="1460" y="117"/>
      <point x="1348.0" y="48.5" type="qcurve" smooth="yes" name="inserted"/>
      <point x="1292.0" y="14.25" name="inserted"/>
      <point x="1164.0" y="-20.0"/>
      <point x="1092" y="-20" type="qcurve" smooth="yes"/>
      <point x="883" y="-20"/>
      <point x="617" y="253"/>
      <point x="601" y="471" type="qcurve"/>
      <point x="342" y="471" type="line"/>
      <point x="342" y="0" type="line"/>
      <point x="157" y="0" type="line"/>
      <point x="157" y="1082" type="line"/>
      <point x="342" y="1082" type="line"/>
    </contour>
    <contour>
      <point x="784" y="529" type="qcurve" smooth="yes"/>
      <point x="784" y="349"/>
      <point x="951" y="131"/>
      <point x="1092.0" y="131.0" type="qcurve" smooth="yes" name="inserted"/>
      <point x="1233" y="131"/>
      <point x="1398" y="353"/>
      <point x="1398" y="551" type="qcurve" smooth="yes"/>
      <point x="1398" y="728"/>
      <point x="1230" y="950"/>
      <point x="1090" y="950" type="qcurve" smooth="yes"/>
      <point x="952" y="950"/>
      <point x="784" y="732"/>
    </contour>
  </outline>
</glyph>
<glyph name="uni045A" format="2">
  <advance width="1764"/>
  <unicode hex="045A"/>
  <outline>
    <contour>
      <point x="342" y="673" type="line"/>
      <point x="839" y="673" type="line"/>
      <point x="839" y="1082" type="line"/>
      <point x="1024" y="1082" type="line"/>
      <point x="1024" y="669" type="line"/>
      <point x="1314" y="669" type="line" smooth="yes"/>
      <point x="1494" y="665"/>
      <point x="1703" y="488"/>
      <point x="1703" y="338" type="qcurve" smooth="yes"/>
      <point x="1703" y="187"/>
      <point x="1486" y="0"/>
      <point x="1297" y="0" type="qcurve" smooth="yes"/>
      <point x="839" y="0" type="line"/>
      <point x="839" y="522" type="line"/>
      <point x="342" y="522" type="line"/>
      <point x="342" y="0" type="line"/>
      <point x="156" y="0" type="line"/>
      <point x="156" y="1082" type="line"/>
      <point x="342" y="1082" type="line"/>
    </contour>
    <contour>
      <point x="1024" y="518" type="line"/>
      <point x="1024" y="149" type="line"/>
      <point x="1299" y="149" type="line" smooth="yes"/>
      <point x="1400" y="149"/>
      <point x="1517" y="254"/>
      <point x="1517" y="340" type="qcurve" smooth="yes"/>
      <point x="1517" y="421"/>
      <point x="1403" y="517"/>
      <point x="1304" y="518" type="qcurve" smooth="yes"/>
    </contour>
  </outline>
</glyph>
<glyph name="uni0467" format="2">
  <advance width="1094"/>
  <unicode hex="0467"/>
  <outline>
    <contour>
      <point x="749" y="297" type="line"/>
      <point x="632" y="297" type="line"/>
      <point x="632" y="0" type="line"/>
      <point x="447" y="0" type="line"/>
      <point x="447" y="297" type="line"/>
      <point x="323" y="297" type="line"/>
      <point x="204" y="0" type="line"/>
      <point x="15" y="0" type="line"/>
      <point x="457" y="1082" type="line"/>
      <point x="616" y="1082" type="line"/>
      <point x="1061" y="0" type="line"/>
      <point x="871" y="0" type="line"/>
    </contour>
    <contour>
      <point x="384" y="449" type="line"/>
      <point x="687" y="449" type="line"/>
      <point x="559" y="764" type="line"/>
      <point x="535" y="853" type="line"/>
      <point x="511" y="764" type="line"/>
    </contour>
  </outline>
</glyph>
<glyph name="uni046A" format="2">
  <advance width="1745"/>
  <unicode hex="046A"/>
  <outline>
    <contour>
      <point x="1089" y="810" type="line"/>
      <point x="1116" y="810" type="line" smooth="yes"/>
      <point x="1360" y="810"/>
      <point x="1596" y="598"/>
      <point x="1599" y="382" type="qcurve" smooth="yes"/>
      <point x="1599" y="0" type="line"/>
      <point x="1406" y="0" type="line"/>
      <point x="1406" y="376" type="line" smooth="yes"/>
      <point x="1405" y="520"/>
      <point x="1281" y="650"/>
      <point x="1127" y="652" type="qcurve" smooth="yes"/>
      <point x="994" y="652" type="line"/>
      <point x="973" y="617" type="line"/>
      <point x="973" y="0" type="line"/>
      <point x="780" y="0" type="line"/>
      <point x="780" y="630" type="line"/>
      <point x="767" y="652" type="line"/>
      <point x="631" y="652" type="line" smooth="yes"/>
      <point x="473" y="652"/>
      <point x="343" y="529"/>
      <point x="339" y="388" type="qcurve"/>
      <point x="339" y="0" type="line"/>
      <point x="147" y="0" type="line"/>
      <point x="147" y="382" type="line" smooth="yes"/>
      <point x="150" y="598"/>
      <point x="386" y="810"/>
      <point x="629" y="810" type="qcurve" smooth="yes"/>
      <point x="671" y="810" type="line"/>
      <point x="279" y="1456" type="line"/>
      <point x="1481" y="1456" type="line"/>
    </contour>
    <contour>
      <point x="872" y="810" type="line"/>
      <point x="888" y="810" type="line"/>
      <point x="1170" y="1298" type="line"/>
      <point x="589" y="1298" type="line"/>
    </contour>
  </outline>
</glyph>
<glyph name="uni0472" format="2">
  <advance width="1393"/>
  <unicode hex="0472"/>
  <outline>
    <contour>
      <point x="1274" y="681" type="line" smooth="yes"/>
      <point x="1274" y="468"/>
      <point x="1131" y="150"/>
      <point x="999.0" y="65.0" type="qcurve" smooth="yes" name="inserted"/>
      <point x="933.0" y="22.5" name="inserted"/>
      <point x="778.5" y="-20.0"/>
      <point x="690" y="-20" type="qcurve" smooth="yes"/>
      <point x="518" y="-20"/>
      <point x="252" y="149"/>
      <point x="178.5" y="305.5" type="qcurve" smooth="yes" name="inserted"/>
      <point x="141.75" y="383.75" name="inserted"/>
      <point x="104.0" y="565.0"/>
      <point x="103" y="668" type="qcurve" smooth="yes"/>
      <point x="103" y="773" type="line" smooth="yes"/>
      <point x="103" y="983"/>
      <point x="249" y="1305"/>
      <point x="382.5" y="1390.5" type="qcurve" smooth="yes" name="inserted"/>
      <point x="449.25" y="1433.25" name="inserted"/>
      <point x="602.0" y="1476.0"/>
      <point x="688" y="1476" type="qcurve" smooth="yes"/>
      <point x="863" y="1476"/>
      <point x="1127" y="1308"/>
      <point x="1199.5" y="1150.5" type="qcurve" smooth="yes" name="inserted"/>
      <point x="1235.75" y="1071.75" name="inserted"/>
      <point x="1273.0" y="889.5"/>
      <point x="1274" y="786" type="qcurve" smooth="yes"/>
    </contour>
    <contour>
      <point x="688" y="1311" type="qcurve" smooth="yes"/>
      <point x="506" y="1311"/>
      <point x="298" y="1036"/>
      <point x="294" y="794" type="qcurve"/>
      <point x="1082" y="794" type="line"/>
      <point x="1078" y="1042"/>
      <point x="872" y="1311"/>
    </contour>
    <contour>
      <point x="690" y="143" type="qcurve" smooth="yes"/>
      <point x="872" y="143"/>
      <point x="1074" y="399"/>
      <point x="1082" y="643" type="qcurve"/>
      <point x="294" y="643" type="line"/>
      <point x="302" y="407"/>
      <point x="513" y="143"/>
    </contour>
  </outline>
</glyph>
<glyph name="uni0473" format="2">
  <advance width="1163"/>
  <unicode hex="0473"/>
  <outline>
    <contour>
      <point x="91" y="551" type="line" smooth="yes"/>
      <point x="91" y="710"/>
      <point x="214" y="963"/>
      <point x="326.5" y="1032.5" type="qcurve" smooth="yes" name="inserted"/>
      <point x="382.75" y="1067.25" name="inserted"/>
      <point x="510.5" y="1102.0"/>
      <point x="582" y="1102" type="qcurve" smooth="yes"/>
      <point x="794" y="1102"/>
      <point x="1064" y="816"/>
      <point x="1075" y="587" type="qcurve" smooth="yes"/>
      <point x="1076" y="529" type="line" smooth="yes"/>
      <point x="1076" y="371"/>
      <point x="952" y="117"/>
      <point x="840.0" y="48.5" type="qcurve" smooth="yes" name="inserted"/>
      <point x="784.0" y="14.25" name="inserted"/>
      <point x="656.0" y="-20.0"/>
      <point x="584" y="-20" type="qcurve" smooth="yes"/>
      <point x="362" y="-20"/>
      <point x="91" y="287"/>
      <point x="91" y="538" type="qcurve" smooth="yes"/>
    </contour>
    <contour>
      <point x="887" y="470" type="qcurve"/>
      <point x="278" y="470" type="line"/>
      <point x="291" y="315"/>
      <point x="455" y="131"/>
      <point x="584.0" y="131.0" type="qcurve" smooth="yes" name="inserted"/>
      <point x="713" y="131"/>
      <point x="874" y="317"/>
    </contour>
    <contour>
      <point x="582" y="950" type="qcurve" smooth="yes"/>
      <point x="457" y="950"/>
      <point x="295" y="769"/>
      <point x="280" y="622" type="qcurve"/>
      <point x="886" y="622" type="line"/>
      <point x="868" y="773"/>
      <point x="705" y="950"/>
    </contour>
  </outline>
</glyph>
<glyph name="uni0495" format="2">
  <advance width="1029"/>
  <unicode hex="0495"/>
  <outline>
    <contour>
      <point x="830" y="929" type="line"/>
      <point x="331" y="929" type="line"/>
      <point x="331" y="645" type="line"/>
      <point x="439" y="645" type="line" smooth="yes"/>
      <point x="678" y="645"/>
      <point x="958" y="385"/>
      <point x="958" y="170" type="qcurve" smooth="yes"/>
      <point x="958" y="72"/>
      <point x="860" y="-128"/>
      <point x="775.0" y="-195.0" type="qcurve" smooth="yes" name="inserted"/>
      <point x="732.5" y="-228.5" name="inserted"/>
      <point x="631.5" y="-272.5"/>
      <point x="573" y="-283" type="qcurve"/>
      <point x="525" y="-137" type="line"/>
      <point x="653" y="-104"/>
      <point x="773" y="49"/>
      <point x="773" y="170" type="qcurve" smooth="yes"/>
      <point x="773" y="315"/>
      <point x="595" y="483"/>
      <point x="443" y="483" type="qcurve" smooth="yes"/>
      <point x="331" y="483" type="line"/>
      <point x="331" y="0" type="line"/>
      <point x="145" y="0" type="line"/>
      <point x="145" y="1082" type="line"/>
      <point x="830" y="1082" type="line"/>
    </contour>
  </outline>
</glyph>
<glyph name="uni04C3" format="2">
  <advance width="1289"/>
  <unicode hex="04C3"/>
  <outline>
    <contour>
      <point x="356" y="0" type="line"/>
      <point x="163" y="0" type="line"/>
      <point x="163" y="1456" type="line"/>
      <point x="356" y="1456" type="line"/>
      <point x="356" y="831" type="line"/>
      <point x="489" y="831" type="line"/>
      <point x="1002" y="1456" type="line"/>
      <point x="1228" y="1456" type="line"/>
      <point x="708" y="824" type="line"/>
      <point x="956" y="802"/>
      <point x="1225" y="500"/>
      <point x="1225" y="250" type="qcurve" smooth="yes"/>
      <point x="1225" y="-14"/>
      <point x="976" y="-298"/>
      <point x="746" y="-298" type="qcurve"/>
      <point x="744" y="-146" type="line"/>
      <point x="888" y="-146"/>
      <point x="1032" y="47"/>
      <point x="1032" y="248" type="qcurve" smooth="yes"/>
      <point x="1030" y="450"/>
      <point x="831" y="660"/>
      <point x="632" y="661" type="qcurve" smooth="yes"/>
      <point x="356" y="661" type="line"/>
    </contour>
  </outline>
</glyph>
<glyph name="uni04C8" format="2">
  <advance width="1160"/>
  <unicode hex="04C8"/>
  <outline>
    <contour>
      <point x="331" y="1082" type="line"/>
      <point x="331" y="613" type="line"/>
      <point x="828" y="613" type="line"/>
      <point x="828" y="1082" type="line"/>
      <point x="1013" y="1082" type="line"/>
      <point x="1013" y="-89" type="line" smooth="yes"/>
      <point x="1013" y="-259"/>
      <point x="842" y="-437"/>
      <point x="690" y="-437" type="qcurve" smooth="yes"/>
      <point x="660.0" y="-437.0" name="inserted"/>
      <point x="604.0" y="-428.0"/>
      <point x="578" y="-419" type="qcurve"/>
      <point x="593" y="-272" type="line"/>
      <point x="601.5" y="-275.5" name="inserted"/>
      <point x="640.0" y="-281.5"/>
      <point x="670" y="-284" type="qcurve" smooth="yes"/>
      <point x="690" y="-285" type="line" smooth="yes"/>
      <point x="756" y="-285"/>
      <point x="828" y="-181"/>
      <point x="828" y="-89" type="qcurve" smooth="yes"/>
      <point x="828" y="462" type="line"/>
      <point x="331" y="462" type="line"/>
      <point x="331" y="0" type="line"/>
      <point x="145" y="0" type="line"/>
      <point x="145" y="1082" type="line"/>
    </contour>
  </outline>
</glyph>
<glyph name="uni0502" format="2">
  <advance width="1684"/>
  <unicode hex="0502"/>
  <outline>
    <contour>
      <point x="583" y="0" type="line" smooth="yes"/>
      <point x="354" y="0"/>
      <point x="89" y="244"/>
      <point x="89" y="445" type="qcurve" smooth="yes"/>
      <point x="89" y="643"/>
      <point x="346" y="880"/>
      <point x="573" y="883" type="qcurve" smooth="yes"/>
      <point x="935" y="883" type="line"/>
      <point x="935" y="1456" type="line"/>
      <point x="1128" y="1456" type="line"/>
      <point x="1128" y="155" type="line"/>
      <point x="1216" y="156" type="line" smooth="yes"/>
      <point x="1327" y="158"/>
      <point x="1441" y="304"/>
      <point x="1444" y="427" type="qcurve" smooth="yes"/>
      <point x="1446.0" y="508.0" name="inserted"/>
      <point x="1416.0" y="672.5"/>
      <point x="1384" y="756" type="qcurve"/>
      <point x="1570" y="756" type="line"/>
      <point x="1592" y="688" type="line" smooth="yes"/>
      <point x="1615.5" y="612.5" name="inserted"/>
      <point x="1637.5" y="482.0"/>
      <point x="1636" y="427" type="qcurve" smooth="yes"/>
      <point x="1632" y="232"/>
      <point x="1403" y="0"/>
      <point x="1208" y="0" type="qcurve" smooth="yes"/>
    </contour>
    <contour>
      <point x="935" y="157" type="line"/>
      <point x="935" y="725" type="line"/>
      <point x="583" y="725" type="line" smooth="yes"/>
      <point x="441" y="725"/>
      <point x="283" y="574"/>
      <point x="283.0" y="447.0" type="qcurve" smooth="yes" name="inserted"/>
      <point x="283" y="320"/>
      <point x="435" y="161"/>
      <point x="568" y="157" type="qcurve" smooth="yes"/>
    </contour>
  </outline>
</glyph>
<glyph name="uni0506" format="2">
  <advance width="1097"/>
  <unicode hex="0506"/>
  <outline>
    <contour>
      <point x="175" y="633" type="line"/>
      <point x="175" y="784" type="line"/>
      <point x="344" y="784" type="line" smooth="yes"/>
      <point x="508" y="785"/>
      <point x="663" y="910"/>
      <point x="663" y="1043" type="qcurve" smooth="yes"/>
      <point x="663.0" y="1173.5" name="inserted"/>
      <point x="508.0" y="1304.0"/>
      <point x="353" y="1304" type="qcurve" smooth="yes"/>
      <point x="82" y="1304" type="line"/>
      <point x="82" y="1455" type="line"/>
      <point x="371" y="1455" type="line" smooth="yes"/>
      <point x="603" y="1452"/>
      <point x="847" y="1242"/>
      <point x="847" y="1041" type="qcurve" smooth="yes"/>
      <point x="847.0" y="928.0" name="inserted"/>
      <point x="732.5" y="765.0"/>
      <point x="618" y="715" type="qcurve"/>
      <point x="729.0" y="680.0" name="inserted"/>
      <point x="842.0" y="513.0"/>
      <point x="844" y="381" type="qcurve" smooth="yes"/>
      <point x="844" y="212" type="line"/>
      <point x="1013" y="212" type="line"/>
      <point x="1013" y="64" type="line" smooth="yes"/>
      <point x="1013" y="-33"/>
      <point x="916" y="-233"/>
      <point x="839" y="-297" type="qcurve"/>
      <point x="733" y="-225" type="line"/>
      <point x="773.5" y="-167.5" name="inserted"/>
      <point x="821.0" y="-55.0"/>
      <point x="828" y="0" type="qcurve"/>
      <point x="721" y="0" type="line"/>
      <point x="691.0" y="26.0" name="inserted"/>
      <point x="659.5" y="137.5"/>
      <point x="658" y="223" type="qcurve" smooth="yes"/>
      <point x="658" y="366" type="line" smooth="yes"/>
      <point x="658" y="492"/>
      <point x="512" y="633"/>
      <point x="393" y="633" type="qcurve" smooth="yes"/>
    </contour>
  </outline>
</glyph>
<glyph name="uni050A" format="2">
  <advance width="2043"/>
  <unicode hex="050A"/>
  <outline>
    <contour>
      <point x="1257" y="1456" type="line"/>
      <point x="1257" y="348" type="line" smooth="yes"/>
      <point x="1257" y="247"/>
      <point x="1350" y="136"/>
      <point x="1424" y="136" type="qcurve" smooth="yes"/>
      <point x="1558" y="138"/>
      <point x="1706" y="343"/>
      <point x="1710" y="529" type="qcurve" smooth="yes"/>
      <point x="1712.0" y="620.5" name="inserted"/>
      <point x="1681.0" y="821.5"/>
      <point x="1648" y="931" type="qcurve"/>
      <point x="1835" y="932" type="line"/>
      <point x="1862" y="834"/>
      <point x="1905" y="632"/>
      <point x="1903" y="529" type="qcurve" smooth="yes"/>
      <point x="1901" y="361"/>
      <point x="1778" y="110"/>
      <point x="1670.0" y="44.5" type="qcurve" smooth="yes" name="inserted"/>
      <point x="1616.0" y="11.75" name="inserted"/>
      <point x="1493.0" y="-21.0"/>
      <point x="1424" y="-21" type="qcurve" smooth="yes"/>
      <point x="1253" y="-25"/>
      <point x="1072" y="159"/>
      <point x="1064" y="346" type="qcurve" smooth="yes"/>
      <point x="1064" y="641" type="line"/>
      <point x="362" y="641" type="line"/>
      <point x="362" y="0" type="line"/>
      <point x="169" y="0" type="line"/>
      <point x="169" y="1456" type="line"/>
      <point x="362" y="1456" type="line"/>
      <point x="362" y="798" type="line"/>
      <point x="1064" y="798" type="line"/>
      <point x="1064" y="1456" type="line"/>
    </contour>
  </outline>
</glyph>
<glyph name="uni050D" format="2">
  <advance width="1053"/>
  <unicode hex="050D"/>
  <outline>
    <contour>
      <point x="593" y="130" type="qcurve" smooth="yes"/>
      <point x="689" y="132"/>
      <point x="779" y="212"/>
      <point x="781" y="301" type="qcurve" smooth="yes"/>
      <point x="781.0" y="362.0" name="inserted"/>
      <point x="771.0" y="480.0"/>
      <point x="761" y="537" type="qcurve"/>
      <point x="939" y="537" type="line"/>
      <point x="953.0" y="462.0" name="inserted"/>
      <point x="966.5" y="344.0"/>
      <point x="966" y="301" type="qcurve" smooth="yes"/>
      <point x="962" y="148"/>
      <point x="766" y="-21"/>
      <point x="593" y="-21" type="qcurve" smooth="yes"/>
      <point x="373" y="-21"/>
      <point x="101" y="285"/>
      <point x="101" y="532" type="qcurve" smooth="yes"/>
      <point x="101" y="562" type="line" smooth="yes"/>
      <point x="101" y="713"/>
      <point x="219" y="962"/>
      <point x="326.0" y="1032.0" type="qcurve" smooth="yes" name="inserted"/>
      <point x="379.5" y="1067.0" name="inserted"/>
      <point x="502.5" y="1102.0"/>
      <point x="572" y="1102" type="qcurve" smooth="yes"/>
      <point x="664.5" y="1102.0" name="inserted"/>
      <point x="805.0" y="1069.0"/>
      <point x="853" y="1036" type="qcurve"/>
      <point x="809" y="892" type="line"/>
      <point x="759.5" y="921.0" name="inserted"/>
      <point x="641.0" y="950.0"/>
      <point x="572" y="950" type="qcurve" smooth="yes"/>
      <point x="441" y="950"/>
      <point x="286" y="730"/>
      <point x="286" y="551" type="qcurve" smooth="yes"/>
      <point x="286" y="520" type="line" smooth="yes"/>
      <point x="286" y="349"/>
      <point x="452" y="130"/>
    </contour>
  </outline>
</glyph>
<glyph name="uni050E" format="2">
  <advance width="1453"/>
  <unicode hex="050E"/>
  <outline>
    <contour>
      <point x="510" y="1298" type="line"/>
      <point x="35" y="1298" type="line"/>
      <point x="35" y="1456" type="line"/>
      <point x="1187" y="1456" type="line"/>
      <point x="1187" y="1298" type="line"/>
      <point x="703" y="1298" type="line"/>
      <point x="703" y="346" type="line" smooth="yes"/>
      <point x="703" y="250"/>
      <point x="795" y="136"/>
      <point x="871" y="136" type="qcurve" smooth="yes"/>
      <point x="1005" y="138"/>
      <point x="1153" y="346"/>
      <point x="1157.0" y="529.0" type="qcurve" smooth="yes" name="inserted"/>
      <point x="1159.0" y="620.5" name="inserted"/>
      <point x="1128.0" y="821.5"/>
      <point x="1095" y="931" type="qcurve"/>
      <point x="1281" y="932" type="line"/>
      <point x="1308" y="834"/>
      <point x="1351" y="632"/>
      <point x="1348" y="529" type="qcurve" smooth="yes"/>
      <point x="1346" y="360"/>
      <point x="1225" y="111"/>
      <point x="1116.5" y="45.0" type="qcurve" smooth="yes" name="inserted"/>
      <point x="1062.25" y="12.0" name="inserted"/>
      <point x="939.5" y="-21.0"/>
      <point x="871" y="-21" type="qcurve" smooth="yes"/>
      <point x="701" y="-25"/>
      <point x="518" y="158"/>
      <point x="510" y="346" type="qcurve" smooth="yes"/>
    </contour>
  </outline>
</glyph>
<glyph name="uni0510" format="2">
  <advance width="1380"/>
  <unicode hex="0510"/>
  <outline>
    <contour>
      <point x="344" y="402" type="qcurve" smooth="yes"/>
      <point x="344" y="282"/>
      <point x="551" y="136"/>
      <point x="727" y="136" type="qcurve" smooth="yes"/>
      <point x="882" y="136"/>
      <point x="1086" y="288"/>
      <point x="1086" y="404" type="qcurve"/>
      <point x="1279" y="404" type="line"/>
      <point x="1279" y="273"/>
      <point x="1138" y="83"/>
      <point x="1011.0" y="31.5" type="qcurve" smooth="yes" name="inserted"/>
      <point x="947.5" y="5.75" name="inserted"/>
      <point x="805.5" y="-20.0"/>
      <point x="727" y="-20" type="qcurve" smooth="yes"/>
      <point x="466" y="-20"/>
      <point x="150" y="209"/>
      <point x="150" y="406" type="qcurve" smooth="yes"/>
      <point x="150.0" y="533.5" name="inserted"/>
      <point x="288.0" y="704.0"/>
      <point x="426" y="747" type="qcurve"/>
      <point x="306" y="795"/>
      <point x="172" y="961"/>
      <point x="172" y="1062" type="qcurve" smooth="yes"/>
      <point x="172" y="1258"/>
      <point x="465" y="1477"/>
      <point x="727" y="1477" type="qcurve" smooth="yes"/>
      <point x="874" y="1477"/>
      <point x="1119" y="1376"/>
      <point x="1189.0" y="1283.0" type="qcurve" smooth="yes" name="inserted"/>
      <point x="1224.0" y="1236.5" name="inserted"/>
      <point x="1259.0" y="1131.5"/>
      <point x="1259" y="1073" type="qcurve"/>
      <point x="1066" y="1073" type="line"/>
      <point x="1066" y="1176"/>
      <point x="873" y="1319"/>
      <point x="727" y="1319" type="qcurve" smooth="yes"/>
      <point x="560" y="1319"/>
      <point x="366" y="1183"/>
      <point x="366" y="1065" type="qcurve" smooth="yes"/>
      <point x="366" y="948"/>
      <point x="539" y="823"/>
      <point x="702" y="821" type="qcurve" smooth="yes"/>
      <point x="898" y="821" type="line"/>
      <point x="898" y="663" type="line"/>
      <point x="702" y="663" type="line" smooth="yes"/>
      <point x="525" y="661"/>
      <point x="344" y="535"/>
    </contour>
  </outline>
</glyph>
<glyph name="quotesinglbase" format="2">
  <advance width="407"/>
  <unicode hex="201A"/>
  <outline>
    <contour>
      <point x="141" y="-283" type="qcurve"/>
      <point x="36" y="-210" type="line"/>
      <point x="81.5" y="-146.5" name="inserted"/>
      <point x="128.5" y="-10.0"/>
      <point x="130" y="63" type="qcurve" smooth="yes"/>
      <point x="130" y="181" type="line"/>
      <point x="315" y="181" type="line"/>
      <point x="315" y="81" type="line" smooth="yes"/>
      <point x="315" y="-20"/>
      <point x="216" y="-222"/>
    </contour>
  </outline>
</glyph>
<glyph name="quotedblbase" format="2">
  <advance width="705"/>
  <unicode hex="201E"/>
  <outline>
    <contour>
      <point x="141" y="-301" type="qcurve"/>
      <point x="36" y="-229" type="line"/>
      <point x="81.5" y="-160.5" name="inserted"/>
      <point x="128.5" y="-15.5"/>
      <point x="130" y="61" type="qcurve" smooth="yes"/>
      <point x="130" y="246" type="line"/>
      <point x="315" y="246" type="line"/>
      <point x="315" y="82" type="line" smooth="yes"/>
      <point x="315" y="-26"/>
      <point x="216" y="-237"/>
    </contour>
    <contour>
      <point x="437" y="-301" type="qcurve"/>
      <point x="332" y="-229" type="line"/>
      <point x="377.5" y="-160.5" name="inserted"/>
      <point x="424.5" y="-15.5"/>
      <point x="426" y="61" type="qcurve" smooth="yes"/>
      <point x="426" y="246" type="line"/>
      <point x="612" y="246" type="line"/>
      <point x="612" y="82" type="line" smooth="yes"/>
      <point x="612" y="-25"/>
      <point x="515" y="-234"/>
    </contour>
  </outline>
</glyph>
<glyph name="daggerdbl" format="2">
  <advance width="1167"/>
  <unicode hex="2021"/>
  <outline>
    <contour>
      <point x="1076" y="0" type="line"/>
      <point x="670" y="0" type="line"/>
      <point x="670" y="-416" type="line"/>
      <point x="484" y="-416" type="line"/>
      <point x="484" y="0" type="line"/>
      <point x="87" y="0" type="line"/>
      <point x="87" y="151" type="line"/>
      <point x="484" y="151" type="line"/>
      <point x="484" y="929" type="line"/>
      <point x="87" y="929" type="line"/>
      <point x="87" y="1082" type="line"/>
      <point x="484" y="1082" type="line"/>
      <point x="484" y="1456" type="line"/>
      <point x="670" y="1456" type="line"/>
      <point x="670" y="1082" type="line"/>
      <point x="1076" y="1082" type="line"/>
      <point x="1076" y="929" type="line"/>
      <point x="670" y="929" type="line"/>
      <point x="670" y="151" type="line"/>
      <point x="1076" y="151" type="line"/>
    </contour>
  </outline>
</glyph>
<glyph name="guilsinglleft" format="2">
  <advance width="614"/>
  <unicode hex="2039"/>
  <outline>
    <contour>
      <point x="286" y="550" type="line"/>
      <point x="544" y="153" type="line"/>
      <point x="403" y="153" type="line"/>
      <point x="108" y="541" type="line"/>
      <point x="108" y="560" type="line"/>
      <point x="403" y="949" type="line"/>
      <point x="544" y="949" type="line"/>
    </contour>
  </outline>
</glyph>
<glyph name="uni20A9" format="2">
  <advance width="1515"/>
  <unicode hex="20A9"/>
  <outline>
    <contour>
      <point x="935" y="980" type="line"/>
      <point x="1169" y="980" type="line"/>
      <point x="1257" y="1456" type="line"/>
      <point x="1450" y="1456" type="line"/>
      <point x="1349" y="980" type="line"/>
      <point x="1484" y="980" type="line"/>
      <point x="1484" y="828" type="line"/>
      <point x="1316" y="828" type="line"/>
      <point x="1275" y="634" type="line"/>
      <point x="1484" y="634" type="line"/>
      <point x="1484" y="482" type="line"/>
      <point x="1243" y="482" type="line"/>
      <point x="1141" y="0" type="line"/>
      <point x="957" y="0" type="line"/>
      <point x="871" y="482" type="line"/>
      <point x="642" y="482" type="line"/>
      <point x="554" y="0" type="line"/>
      <point x="370" y="0" type="line"/>
      <point x="267" y="482" type="line"/>
      <point x="31" y="482" type="line"/>
      <point x="31" y="634" type="line"/>
      <point x="235" y="634" type="line"/>
      <point x="194" y="828" type="line"/>
      <point x="31" y="828" type="line"/>
      <point x="31" y="980" type="line"/>
      <point x="161" y="980" type="line"/>
      <point x="60" y="1456" type="line"/>
      <point x="252" y="1456" type="line"/>
      <point x="343" y="980" type="line"/>
      <point x="584" y="980" type="line"/>
      <point x="670" y="1456" type="line"/>
      <point x="849" y="1456" type="line"/>
    </contour>
    <contour>
      <point x="409" y="634" type="line"/>
      <point x="521" y="634" type="line"/>
      <point x="556" y="828" type="line"/>
      <point x="372" y="828" type="line"/>
    </contour>
    <contour>
      <point x="997" y="634" type="line"/>
      <point x="1105" y="634" type="line"/>
      <point x="1141" y="828" type="line"/>
      <point x="962" y="828" type="line"/>
    </contour>
    <contour>
      <point x="670" y="634" type="line"/>
      <point x="844" y="634" type="line"/>
      <point x="810" y="828" type="line"/>
      <point x="706" y="828" type="line"/>
    </contour>
    <contour>
      <point x="492" y="472" type="line"/>
      <point x="494" y="482" type="line"/>
      <point x="439" y="482" type="line"/>
      <point x="440" y="476" type="line"/>
      <point x="463" y="266" type="line"/>
    </contour>
    <contour>
      <point x="1076" y="476" type="line"/>
      <point x="1077" y="482" type="line"/>
      <point x="1024" y="482" type="line"/>
      <point x="1026" y="475" type="line"/>
      <point x="1053" y="272" type="line"/>
    </contour>
    <contour>
      <point x="733" y="980" type="line"/>
      <point x="783" y="980" type="line"/>
      <point x="782" y="987" type="line"/>
      <point x="758" y="1160" type="line"/>
      <point x="734" y="983" type="line"/>
    </contour>
  </outline>
</glyph>
<glyph name="uni20B9" format="2">
  <advance width="1058"/>
  <unicode hex="20B9"/>
  <outline>
    <contour>
      <point x="970" y="1298" type="line"/>
      <point x="734" y="1298" type="line"/>
      <point x="766.0" y="1257.5" name="inserted"/>
      <point x="806.5" y="1158.5"/>
      <point x="815" y="1100" type="qcurve"/>
      <point x="1016" y="1100" type="line"/>
      <point x="970" y="942" type="line"/>
      <point x="818" y="942" type="line"/>
      <point x="800" y="764"/>
      <point x="554" y="584"/>
      <point x="335" y="584" type="qcurve"/>
      <point x="828" y="12" type="line"/>
      <point x="828" y="0" type="line"/>
      <point x="601" y="0" type="line"/>
      <point x="71" y="617" type="line"/>
      <point x="70" y="742" type="line"/>
      <point x="319" y="742" type="line" smooth="yes"/>
      <point x="444" y="743"/>
      <point x="600" y="850"/>
      <point x="621" y="942" type="qcurve"/>
      <point x="42" y="942" type="line"/>
      <point x="88" y="1100" type="line"/>
      <point x="619" y="1100" type="line"/>
      <point x="595.0" y="1195.0" name="inserted"/>
      <point x="448.0" y="1294.0"/>
      <point x="325" y="1298" type="qcurve" smooth="yes"/>
      <point x="44" y="1298" type="line"/>
      <point x="91" y="1456" type="line"/>
      <point x="1016" y="1456" type="line"/>
    </contour>
  </outline>
</glyph>
<glyph name="uni20BA" format="2">
  <advance width="1140"/>
  <unicode hex="20BA"/>
  <outline>
    <contour>
      <point x="1050" y="771" type="line"/>
      <point x="1050" y="671" type="line"/>
      <point x="1048" y="461"/>
      <point x="904" y="148"/>
      <point x="771.5" y="65.0" type="qcurve" smooth="yes" name="inserted"/>
      <point x="705.25" y="23.5" name="inserted"/>
      <point x="551.5" y="-18.0"/>
      <point x="464" y="-18" type="qcurve" smooth="yes"/>
      <point x="424.0" y="-18.0" name="inserted"/>
      <point x="330.0" y="-9.0"/>
      <point x="276" y="0" type="qcurve"/>
      <point x="276" y="602" type="line"/>
      <point x="32" y="491" type="line"/>
      <point x="32" y="669" type="line"/>
      <point x="276" y="780" type="line"/>
      <point x="276" y="933" type="line"/>
      <point x="32" y="822" type="line"/>
      <point x="32" y="1000" type="line"/>
      <point x="276" y="1111" type="line"/>
      <point x="276" y="1456" type="line"/>
      <point x="468" y="1456" type="line"/>
      <point x="468" y="1199" type="line"/>
      <point x="719" y="1314" type="line"/>
      <point x="719" y="1136" type="line"/>
      <point x="468" y="1021" type="line"/>
      <point x="468" y="868" type="line"/>
      <point x="719" y="983" type="line"/>
      <point x="719" y="805" type="line"/>
      <point x="468" y="690" type="line"/>
      <point x="468" y="144" type="line"/>
      <point x="658" y="146"/>
      <point x="859" y="418"/>
      <point x="859" y="683" type="qcurve" smooth="yes"/>
      <point x="859" y="771" type="line"/>
    </contour>
  </outline>
</glyph>
<glyph name="trademark" format="2">
  <advance width="1281"/>
  <unicode hex="2122"/>
  <outline>
    <contour>
      <point x="990" y="1313" type="line"/>
      <point x="850" y="919" type="line"/>
      <point x="798" y="919" type="line"/>
      <point x="658" y="1312" type="line"/>
      <point x="658" y="919" type="line"/>
      <point x="568" y="919" type="line"/>
      <point x="568" y="1456" type="line"/>
      <point x="680" y="1456" type="line"/>
      <point x="824" y="1057" type="line"/>
      <point x="968" y="1456" type="line"/>
      <point x="1080" y="1456" type="line"/>
      <point x="1080" y="919" type="line"/>
      <point x="990" y="919" type="line"/>
    </contour>
    <contour>
      <point x="489" y="1375" type="line"/>
      <point x="342" y="1375" type="line"/>
      <point x="342" y="919" type="line"/>
      <point x="251" y="919" type="line"/>
      <point x="251" y="1375" type="line"/>
      <point x="103" y="1375" type="line"/>
      <point x="103" y="1456" type="line"/>
      <point x="489" y="1456" type="line"/>
    </contour>
  </outline>
</glyph>
<glyph name="approxequal" format="2">
  <advance width="1154"/>
  <unicode hex="2248"/>
  <outline>
    <contour>
      <point x="102" y="901" type="line"/>
      <point x="150" y="952"/>
      <point x="281" y="1010"/>
      <point x="347" y="1010" type="qcurve" smooth="yes"/>
      <point x="388.0" y="1011.0" name="inserted"/>
      <point x="466.0" y="994.5"/>
      <point x="503" y="977" type="qcurve" smooth="yes"/>
      <point x="655" y="899" type="line" smooth="yes"/>
      <point x="688.0" y="883.5" name="inserted"/>
      <point x="760.0" y="868.0"/>
      <point x="799" y="868" type="qcurve" smooth="yes"/>
      <point x="866.0" y="868.0" name="inserted"/>
      <point x="984.0" y="932.0"/>
      <point x="1035" y="996" type="qcurve"/>
      <point x="1035" y="806" type="line"/>
      <point x="983.5" y="751.5" name="inserted"/>
      <point x="865.5" y="697.0"/>
      <point x="799" y="697" type="qcurve" smooth="yes"/>
      <point x="760.0" y="697.0" name="inserted"/>
      <point x="688.0" y="712.5"/>
      <point x="655" y="728" type="qcurve" smooth="yes"/>
      <point x="494" y="811" type="line" smooth="yes"/>
      <point x="460.0" y="826.5" name="inserted"/>
      <point x="386.5" y="841.0"/>
      <point x="347" y="840" type="qcurve" smooth="yes"/>
      <point x="281" y="840"/>
      <point x="150" y="772"/>
      <point x="102" y="712" type="qcurve"/>
    </contour>
    <contour>
      <point x="101" y="483" type="line"/>
      <point x="149" y="534"/>
      <point x="279" y="593"/>
      <point x="345" y="593" type="qcurve" smooth="yes"/>
      <point x="386.0" y="594.0" name="inserted"/>
      <point x="464.0" y="577.5"/>
      <point x="501" y="560" type="qcurve" smooth="yes"/>
      <point x="650" y="483" type="line" smooth="yes"/>
      <point x="684.0" y="466.5" name="inserted"/>
      <point x="758.0" y="450.0"/>
      <point x="798" y="450" type="qcurve" smooth="yes"/>
      <point x="864.5" y="450.0" name="inserted"/>
      <point x="982.0" y="514.0"/>
      <point x="1033" y="578" type="qcurve"/>
      <point x="1034" y="389" type="line"/>
      <point x="982.5" y="334.5" name="inserted"/>
      <point x="864.5" y="280.0"/>
      <point x="798" y="280" type="qcurve" smooth="yes"/>
      <point x="759.0" y="280.0" name="inserted"/>
      <point x="687.0" y="295.5"/>
      <point x="654" y="311" type="qcurve" smooth="yes"/>
      <point x="502" y="389" type="line" smooth="yes"/>
      <point x="465.0" y="406.5" name="inserted"/>
      <point x="387.0" y="423.0"/>
      <point x="346" y="422" type="qcurve" smooth="yes"/>
      <point x="280" y="422"/>
      <point x="149" y="354"/>
      <point x="101" y="294" type="qcurve"/>
    </contour>
  </outline>
</glyph>
<glyph name="notequal" format="2">
  <advance width="1124"/>
  <unicode hex="2260"/>
  <outline>
    <contour>
      <point x="986" y="399" type="line"/>
      <point x="455" y="399" type="line"/>
      <point x="313" y="155" type="line"/>
      <point x="218" y="214" type="line"/>
      <point x="326" y="399" type="line"/>
      <point x="152" y="399" type="line"/>
      <point x="152" y="559" type="line"/>
      <point x="419" y="559" type="line"/>
      <point x="568" y="814" type="line"/>
      <point x="152" y="814" type="line"/>
      <point x="152" y="975" type="line"/>
      <point x="662" y="975" type="line"/>
      <point x="815" y="1237" type="line"/>
      <point x="910" y="1178" type="line"/>
      <point x="791" y="975" type="line"/>
      <point x="986" y="975" type="line"/>
      <point x="986" y="814" type="line"/>
      <point x="697" y="814" type="line"/>
      <point x="549" y="559" type="line"/>
      <point x="986" y="559" type="line"/>
    </contour>
  </outline>
</glyph>
<glyph name="lozenge" format="2">
  <advance width="1032"/>
  <unicode hex="25CA"/>
  <outline>
    <contour>
      <point x="444" y="1456" type="line"/>
      <point x="584" y="1456" type="line"/>
      <point x="988" y="727" type="line"/>
      <point x="588" y="0" type="line"/>
      <point x="447" y="0" type="line"/>
      <point x="43" y="727" type="line"/>
    </contour>
    <contour>
      <point x="513" y="1254" type="line"/>
      <point x="234" y="727" type="line"/>
      <point x="518" y="201" type="line"/>
      <point x="798" y="727" type="line"/>
    </contour>
  </outline>
</glyph>
<glyph name="uniFB03" format="2">
  <advance width="1748"/>
  <unicode hex="FB03"/>
  <outline>
    <contour>
      <point x="231" y="0" type="line"/>
      <point x="231" y="939" type="line"/>
      <point x="60" y="939" type="line"/>
      <point x="60" y="1082" type="line"/>
      <point x="231" y="1082" type="line"/>
      <point x="231" y="1193" type="line" smooth="yes"/>
      <point x="231" y="1367"/>
      <point x="417" y="1557"/>
      <point x="587" y="1557" type="qcurve" smooth="yes"/>
      <point x="619.0" y="1557.0" name="inserted"/>
      <point x="682.5" y="1548.5"/>
      <point x="714" y="1540" type="qcurve"/>
      <point x="704" y="1390" type="line"/>
      <point x="680.5" y="1394.5" name="inserted"/>
      <point x="630.5" y="1399.0"/>
      <point x="604" y="1399" type="qcurve" smooth="yes"/>
      <point x="514" y="1399"/>
      <point x="416" y="1294"/>
      <point x="416" y="1196" type="qcurve" smooth="yes"/>
      <point x="416" y="1082" type="line"/>
      <point x="816" y="1082" type="line"/>
      <point x="816" y="1174" type="line" smooth="yes"/>
      <point x="816" y="1355"/>
      <point x="1023" y="1557"/>
      <point x="1212" y="1557" type="qcurve" smooth="yes"/>
      <point x="1268.0" y="1557.0" name="inserted"/>
      <point x="1409.5" y="1526.5"/>
      <point x="1495" y="1496" type="qcurve"/>
      <point x="1464" y="1340" type="line"/>
      <point x="1401.5" y="1365.0" name="inserted"/>
      <point x="1282.0" y="1390.0"/>
      <point x="1225" y="1390" type="qcurve" smooth="yes"/>
      <point x="1106" y="1390"/>
      <point x="1001" y="1284"/>
      <point x="1001" y="1176" type="qcurve" smooth="yes"/>
      <point x="1001" y="1082" type="line"/>
      <point x="1223" y="1082" type="line"/>
      <point x="1223" y="939" type="line"/>
      <point x="1001" y="939" type="line"/>
      <point x="1001" y="0" type="line"/>
      <point x="816" y="0" type="line"/>
      <point x="816" y="939" type="line"/>
      <point x="416" y="939" type="line"/>
      <point x="416" y="0" type="line"/>
    </contour>
    <contour>
      <point x="1586" y="0" type="line"/>
      <point x="1401" y="0" type="line"/>
      <point x="1401" y="1082" type="line"/>
      <point x="1586" y="1082" type="line"/>
    </contour>
  </outline>
</glyph>
<glyph name="glyph00453" format="2">
  <advance width="751"/>
  <outline>
    <contour>
      <point x="683" y="0" type="line"/>
      <point x="84" y="0" type="line"/>
      <point x="84" y="108" type="line"/>
      <point x="384" y="390" type="line" smooth="yes"/>
      <point x="438.5" y="441.0" name="inserted"/>
      <point x="493.0" y="526.5"/>
      <point x="493" y="561" type="qcurve" smooth="yes"/>
      <point x="493" y="610"/>
      <point x="429" y="671"/>
      <point x="369" y="671" type="qcurve" smooth="yes"/>
      <point x="294" y="671"/>
      <point x="223" y="595"/>
      <point x="223" y="538" type="qcurve"/>
      <point x="66" y="538" type="line"/>
      <point x="66" y="652"/>
      <point x="233" y="800"/>
      <point x="365.0" y="800.0" type="qcurve" smooth="yes" name="inserted"/>
      <point x="497" y="800"/>
      <point x="651" y="673"/>
      <point x="651" y="563" type="qcurve" smooth="yes"/>
      <point x="651.0" y="511.0" name="inserted"/>
      <point x="597.5" y="405.5"/>
      <point x="544" y="352" type="qcurve" smooth="yes"/>
      <point x="460" y="273" type="line"/>
      <point x="284" y="128" type="line"/>
      <point x="683" y="128" type="line"/>
    </contour>
  </outline>
</glyph>
<glyph name="glyph00465" format="2">
  <advance width="1039"/>
  <outline>
    <contour>
      <point x="939" y="497" type="line" smooth="yes"/>
      <point x="939" y="249"/>
      <point x="723" y="-16"/>
      <point x="520" y="-16" type="qcurve" smooth="yes"/>
      <point x="319" y="-16"/>
      <point x="101" y="245"/>
      <point x="99" y="489" type="qcurve" smooth="yes"/>
      <point x="99" y="671" type="line" smooth="yes"/>
      <point x="99" y="920"/>
      <point x="316" y="1181"/>
      <point x="518" y="1181" type="qcurve" smooth="yes"/>
      <point x="721" y="1181"/>
      <point x="936" y="923"/>
      <point x="939" y="684" type="qcurve" smooth="yes"/>
    </contour>
    <contour>
      <point x="753" y="699" type="line" smooth="yes"/>
      <point x="753.0" y="863.5" name="inserted"/>
      <point x="635.5" y="1028.0"/>
      <point x="518" y="1028" type="qcurve" smooth="yes"/>
      <point x="401.0" y="1028.0" name="inserted"/>
      <point x="284.0" y="861.5"/>
      <point x="284" y="695" type="qcurve" smooth="yes"/>
      <point x="284" y="470" type="line" smooth="yes"/>
      <point x="284" y="303"/>
      <point x="406" y="135"/>
      <point x="520" y="135" type="qcurve" smooth="yes"/>
      <point x="636.5" y="135.0" name="inserted"/>
      <point x="753.0" y="304.5"/>
      <point x="753" y="474" type="qcurve" smooth="yes"/>
    </contour>
  </outline>
</glyph>
<glyph name="glyph00470" format="2">
  <advance width="1127"/>
  <outline>
    <contour>
      <point x="538" y="292" type="line"/>
      <point x="563" y="198" type="line"/>
      <point x="589" y="290" type="line"/>
      <point x="909" y="1165" type="line"/>
      <point x="1107" y="1165" type="line"/>
      <point x="650" y="0" type="line"/>
      <point x="477" y="0" type="line"/>
      <point x="20" y="1165" type="line"/>
      <point x="219" y="1165" type="line"/>
    </contour>
  </outline>
</glyph>
<glyph name="glyph00473" format="2">
  <advance width="1056"/>
  <outline>
    <contour>
      <point x="803" y="298" type="qcurve" smooth="yes"/>
      <point x="803" y="378"/>
      <point x="682" y="466"/>
      <point x="535.0" y="503.0" type="qcurve" smooth="yes" name="inserted"/>
      <point x="461.5" y="521.5" name="inserted"/>
      <point x="345.0" y="561.5"/>
      <point x="302" y="583" type="qcurve" smooth="yes"/>
      <point x="204.5" y="632.0" name="inserted"/>
      <point x="107.0" y="770.5"/>
      <point x="107" y="860" type="qcurve" smooth="yes"/>
      <point x="107" y="1003"/>
      <point x="350" y="1181"/>
      <point x="541" y="1181" type="qcurve" smooth="yes"/>
      <point x="737" y="1181"/>
      <point x="986" y="981"/>
      <point x="986" y="825" type="qcurve"/>
      <point x="801" y="825" type="line"/>
      <point x="801" y="923"/>
      <point x="660" y="1030"/>
      <point x="539" y="1030" type="qcurve" smooth="yes"/>
      <point x="426" y="1030"/>
      <point x="292" y="941"/>
      <point x="292" y="861" type="qcurve" smooth="yes"/>
      <point x="292" y="796"/>
      <point x="415" y="708"/>
      <point x="571.0" y="668.0" type="qcurve" smooth="yes" name="inserted"/>
      <point x="727" y="628"/>
      <point x="903" y="527"/>
      <point x="946.0" y="459.0" type="qcurve" smooth="yes" name="inserted"/>
      <point x="967.5" y="425.0" name="inserted"/>
      <point x="989.0" y="345.5"/>
      <point x="989" y="300" type="qcurve" smooth="yes"/>
      <point x="989" y="153"/>
      <point x="746" y="-16"/>
      <point x="547" y="-16" type="qcurve" smooth="yes"/>
      <point x="340" y="-16"/>
      <point x="67" y="187"/>
      <point x="67" y="349" type="qcurve"/>
      <point x="253" y="349" type="line"/>
      <point x="253" y="247"/>
      <point x="407" y="133"/>
      <point x="547" y="133" type="qcurve" smooth="yes"/>
      <point x="673" y="133"/>
      <point x="803" y="224"/>
    </contour>
  </outline>
</glyph>
<glyph name="glyph00474" format="2">
  <advance width="1098"/>
  <outline>
    <contour>
      <point x="602" y="449" type="line"/>
      <point x="323" y="449" type="line"/>
      <point x="323" y="0" type="line"/>
      <point x="138" y="0" type="line"/>
      <point x="138" y="1165" type="line"/>
      <point x="564" y="1165" type="line" smooth="yes"/>
      <point x="777" y="1165"/>
      <point x="1008" y="979"/>
      <point x="1008" y="809" type="qcurve" smooth="yes"/>
      <point x="1008.0" y="695.0" name="inserted"/>
      <point x="890.5" y="536.5"/>
      <point x="773" y="492" type="qcurve"/>
      <point x="1061" y="10" type="line"/>
      <point x="1061" y="0" type="line"/>
      <point x="863" y="0" type="line"/>
    </contour>
    <contour>
      <point x="323" y="600" type="line"/>
      <point x="569" y="600" type="line" smooth="yes"/>
      <point x="686" y="600"/>
      <point x="823" y="709"/>
      <point x="823" y="802" type="qcurve" smooth="yes"/>
      <point x="823" y="902"/>
      <point x="689" y="1012"/>
      <point x="563" y="1012" type="qcurve" smooth="yes"/>
      <point x="323" y="1012" type="line"/>
    </contour>
  </outline>
</glyph>
<glyph name="glyph00481" format="2">
  <advance width="1108"/>
  <outline>
    <contour>
      <point x="470" y="519" type="line"/>
      <point x="323" y="377" type="line"/>
      <point x="323" y="0" type="line"/>
      <point x="138" y="0" type="line"/>
      <point x="138" y="1165" type="line"/>
      <point x="323" y="1165" type="line"/>
      <point x="323" y="610" type="line"/>
      <point x="453" y="754" type="line"/>
      <point x="850" y="1165" type="line"/>
      <point x="1077" y="1165" type="line"/>
      <point x="598" y="646" type="line"/>
      <point x="1111" y="0" type="line"/>
      <point x="886" y="0" type="line"/>
    </contour>
  </outline>
</glyph>
<glyph name="glyph00483" format="2">
  <advance width="488"/>
  <outline>
    <contour>
      <point x="337" y="0" type="line"/>
      <point x="151" y="0" type="line"/>
      <point x="151" y="1165" type="line"/>
      <point x="337" y="1165" type="line"/>
    </contour>
  </outline>
</glyph>
<glyph name="glyph00490" format="2">
  <advance width="943"/>
  <outline>
    <contour>
      <point x="901" y="1012" type="line"/>
      <point x="323" y="1012" type="line"/>
      <point x="323" y="0" type="line"/>
      <point x="138" y="0" type="line"/>
      <point x="138" y="1165" type="line"/>
      <point x="901" y="1165" type="line"/>
    </contour>
  </outline>
</glyph>
<glyph name="glyph00499" format="2">
  <advance width="1266"/>
  <outline>
    <contour>
      <point x="699" y="157" type="line"/>
      <point x="835" y="188"/>
      <point x="962" y="411"/>
      <point x="962" y="616" type="qcurve" smooth="yes"/>
      <point x="962" y="654" type="line" smooth="yes"/>
      <point x="962" y="833"/>
      <point x="788" y="1025"/>
      <point x="631" y="1025" type="qcurve" smooth="yes"/>
      <point x="475" y="1025"/>
      <point x="303" y="832"/>
      <point x="303" y="649" type="qcurve" smooth="yes"/>
      <point x="303" y="616" type="line" smooth="yes"/>
      <point x="303" y="412"/>
      <point x="444" y="189"/>
      <point x="571" y="157" type="qcurve"/>
      <point x="571" y="0" type="line"/>
      <point x="121" y="0" type="line"/>
      <point x="121" y="151" type="line"/>
      <point x="296" y="151" type="line"/>
      <point x="206.5" y="229.5" name="inserted"/>
      <point x="117.0" y="465.0"/>
      <point x="117" y="622" type="qcurve" smooth="yes"/>
      <point x="117" y="652" type="line" smooth="yes"/>
      <point x="117" y="890"/>
      <point x="400" y="1181"/>
      <point x="631" y="1181" type="qcurve" smooth="yes"/>
      <point x="863" y="1181"/>
      <point x="1147" y="889"/>
      <point x="1147" y="644" type="qcurve" smooth="yes"/>
      <point x="1147" y="616" type="line" smooth="yes"/>
      <point x="1147.0" y="461.5" name="inserted"/>
      <point x="1058.0" y="229.0"/>
      <point x="969" y="151" type="qcurve"/>
      <point x="1150" y="151" type="line"/>
      <point x="1150" y="0" type="line"/>
      <point x="699" y="0" type="line"/>
    </contour>
  </outline>
</glyph>
<glyph name="glyph00506" format="2">
  <advance width="1113"/>
  <outline>
    <contour>
      <point x="917" y="1015" type="line"/>
      <point x="323" y="1015" type="line"/>
      <point x="323" y="727" type="line"/>
      <point x="596" y="727" type="line" smooth="yes"/>
      <point x="802" y="727"/>
      <point x="1032" y="531"/>
      <point x="1032" y="366" type="qcurve" smooth="yes"/>
      <point x="1032" y="202"/>
      <point x="804" y="2"/>
      <point x="607" y="0" type="qcurve" smooth="yes"/>
      <point x="138" y="0" type="line"/>
      <point x="138" y="1165" type="line"/>
      <point x="917" y="1165" type="line"/>
    </contour>
    <contour>
      <point x="600" y="152" type="line" smooth="yes"/>
      <point x="715" y="152"/>
      <point x="847" y="271"/>
      <point x="847" y="368" type="qcurve" smooth="yes"/>
      <point x="847" y="459"/>
      <point x="722" y="572"/>
      <point x="612" y="575" type="qcurve" smooth="yes"/>
      <point x="323" y="575" type="line"/>
      <point x="323" y="152" type="line"/>
    </contour>
  </outline>
</glyph>
<glyph name="glyph00510" format="2">
  <advance width="1260"/>
  <outline>
    <contour>
      <point x="936" y="1165" type="line"/>
      <point x="1121" y="1165" type="line"/>
      <point x="1121" y="0" type="line"/>
      <point x="936" y="0" type="line"/>
      <point x="936" y="884" type="line"/>
      <point x="323" y="0" type="line"/>
      <point x="138" y="0" type="line"/>
      <point x="138" y="1165" type="line"/>
      <point x="323" y="1165" type="line"/>
      <point x="323" y="281" type="line"/>
    </contour>
  </outline>
</glyph>
<glyph name="glyph00513" format="2">
  <advance width="1055"/>
  <outline>
    <contour>
      <point x="501" y="560" type="line"/>
      <point x="546" y="440" type="line"/>
      <point x="822" y="1165" type="line"/>
      <point x="1035" y="1165" type="line"/>
      <point x="617" y="210" type="line"/>
      <point x="580" y="137" type="line" smooth="yes"/>
      <point x="540.0" y="64.5" name="inserted"/>
      <point x="415.0" y="-13.5"/>
      <point x="330" y="-19" type="qcurve" smooth="yes"/>
      <point x="292" y="-20" type="line" smooth="yes"/>
      <point x="252.0" y="-20.0" name="inserted"/>
      <point x="202.0" y="-16.0"/>
      <point x="192" y="-12" type="qcurve"/>
      <point x="198" y="135" type="line"/>
      <point x="290" y="130" type="line"/>
      <point x="339" y="130"/>
      <point x="412" y="179"/>
      <point x="444" y="238" type="qcurve"/>
      <point x="34" y="1165" type="line"/>
      <point x="248" y="1165" type="line"/>
    </contour>
  </outline>
</glyph>
<glyph name="glyph00520" format="2">
  <advance width="1102"/>
  <outline>
    <contour>
      <point x="1032" y="366" type="qcurve" smooth="yes"/>
      <point x="1032" y="202"/>
      <point x="804" y="2"/>
      <point x="607" y="0" type="qcurve" smooth="yes"/>
      <point x="138" y="0" type="line"/>
      <point x="138" y="1165" type="line"/>
      <point x="323" y="1165" type="line"/>
      <point x="323" y="727" type="line"/>
      <point x="596" y="727" type="line" smooth="yes"/>
      <point x="802" y="727"/>
      <point x="1032" y="531"/>
    </contour>
    <contour>
      <point x="600" y="152" type="line" smooth="yes"/>
      <point x="715" y="152"/>
      <point x="847" y="271"/>
      <point x="847" y="368" type="qcurve" smooth="yes"/>
      <point x="847" y="459"/>
      <point x="722" y="572"/>
      <point x="612" y="575" type="qcurve" smooth="yes"/>
      <point x="323" y="575" type="line"/>
      <point x="323" y="152" type="line"/>
    </contour>
  </outline>
</glyph>
<glyph name="glyph00521" format="2">
  <advance width="1147"/>
  <outline>
    <contour>
      <point x="260" y="377" type="line"/>
      <point x="280" y="246"/>
      <point x="421" y="135"/>
      <point x="556" y="135" type="qcurve" smooth="yes"/>
      <point x="697" y="135"/>
      <point x="859" y="322"/>
      <point x="866" y="507" type="qcurve"/>
      <point x="419" y="507" type="line"/>
      <point x="419" y="659" type="line"/>
      <point x="865" y="659" type="line"/>
      <point x="860" y="834"/>
      <point x="697" y="1029"/>
      <point x="545" y="1029" type="qcurve" smooth="yes"/>
      <point x="419" y="1029"/>
      <point x="278" y="913"/>
      <point x="260" y="783" type="qcurve"/>
      <point x="75" y="783" type="line"/>
      <point x="94" y="970"/>
      <point x="341" y="1181"/>
      <point x="545" y="1181" type="qcurve" smooth="yes"/>
      <point x="773" y="1181"/>
      <point x="1046" y="892"/>
      <point x="1051" y="648" type="qcurve" smooth="yes"/>
      <point x="1051" y="531" type="line" smooth="yes"/>
      <point x="1051" y="368"/>
      <point x="931" y="119"/>
      <point x="818.0" y="51.5" type="qcurve" smooth="yes" name="inserted"/>
      <point x="761.5" y="17.75" name="inserted"/>
      <point x="630.5" y="-16.0"/>
      <point x="556" y="-16" type="qcurve" smooth="yes"/>
      <point x="349" y="-16"/>
      <point x="95" y="190"/>
      <point x="75" y="377" type="qcurve"/>
    </contour>
  </outline>
</glyph>
<glyph name="glyph00524" format="2">
  <advance width="1041"/>
  <outline>
    <contour>
      <point x="647" y="509" type="line"/>
      <point x="421" y="509" type="line"/>
      <point x="421" y="0" type="line"/>
      <point x="236" y="0" type="line"/>
      <point x="236" y="509" type="line"/>
      <point x="11" y="509" type="line"/>
      <point x="11" y="660" type="line"/>
      <point x="236" y="660" type="line"/>
      <point x="236" y="1165" type="line"/>
      <point x="999" y="1165" type="line"/>
      <point x="999" y="1012" type="line"/>
      <point x="421" y="1012" type="line"/>
      <point x="421" y="660" type="line"/>
      <point x="647" y="660" type="line"/>
    </contour>
  </outline>
</glyph>
<glyph name="glyph00536" format="2">
  <advance width="1226"/>
  <outline>
    <contour>
      <point x="583" y="1181" type="qcurve" smooth="yes"/>
      <point x="830" y="1181"/>
      <point x="1127" y="893"/>
      <point x="1129" y="654" type="qcurve" smooth="yes"/>
      <point x="1129" y="518" type="line" smooth="yes"/>
      <point x="1129" y="365"/>
      <point x="997" y="121"/>
      <point x="879.0" y="52.5" type="qcurve" smooth="yes" name="inserted"/>
      <point x="820.0" y="18.25" name="inserted"/>
      <point x="687.5" y="-16.0"/>
      <point x="614" y="-16" type="qcurve" smooth="yes"/>
      <point x="366" y="-16"/>
      <point x="94" y="261"/>
      <point x="94" y="518" type="qcurve" smooth="yes"/>
      <point x="94" y="648" type="line"/>
      <point x="944" y="648" type="line"/>
      <point x="944" y="649" type="line" smooth="yes"/>
      <point x="944" y="826"/>
      <point x="751" y="1019"/>
      <point x="568" y="1019" type="qcurve" smooth="yes"/>
      <point x="494.5" y="1019.0" name="inserted"/>
      <point x="349.0" y="983.0"/>
      <point x="277" y="947" type="qcurve"/>
      <point x="220" y="1093" type="line"/>
      <point x="285" y="1134"/>
      <point x="477" y="1181"/>
    </contour>
    <contour>
      <point x="614" y="138" type="qcurve" smooth="yes"/>
      <point x="759" y="138"/>
      <point x="938" y="336"/>
      <point x="944" y="497" type="qcurve"/>
      <point x="279" y="497" type="line"/>
      <point x="279" y="470" type="line" smooth="yes"/>
      <point x="279" y="310"/>
      <point x="452" y="138"/>
    </contour>
  </outline>
</glyph>
<glyph name="glyph00541" format="2">
  <advance width="2082"/>
  <outline>
    <contour>
      <point x="1902" y="189" type="line"/>
      <point x="1345" y="189" type="line"/>
      <point x="1345" y="331" type="line"/>
      <point x="1902" y="331" type="line"/>
    </contour>
    <contour>
      <point x="1280" y="846" type="line" smooth="yes"/>
      <point x="1280" y="995"/>
      <point x="1468" y="1181"/>
      <point x="1622.0" y="1181.0" type="qcurve" smooth="yes" name="inserted"/>
      <point x="1776" y="1181"/>
      <point x="1965" y="997"/>
      <point x="1965" y="842" type="qcurve" smooth="yes"/>
      <point x="1965" y="762" type="line" smooth="yes"/>
      <point x="1965" y="610"/>
      <point x="1775" y="428"/>
      <point x="1624" y="428" type="qcurve" smooth="yes"/>
      <point x="1471" y="428"/>
      <point x="1280" y="611"/>
      <point x="1280" y="767" type="qcurve" smooth="yes"/>
    </contour>
    <contour>
      <point x="1443" y="762" type="line" smooth="yes"/>
      <point x="1443" y="673"/>
      <point x="1537" y="567"/>
      <point x="1624" y="567" type="qcurve" smooth="yes"/>
      <point x="1708" y="567"/>
      <point x="1802" y="672"/>
      <point x="1802" y="764" type="qcurve" smooth="yes"/>
      <point x="1802" y="846" type="line" smooth="yes"/>
      <point x="1802" y="936"/>
      <point x="1705" y="1040"/>
      <point x="1622" y="1040" type="qcurve" smooth="yes"/>
      <point x="1540" y="1040"/>
      <point x="1443" y="937"/>
      <point x="1443" y="843" type="qcurve" smooth="yes"/>
    </contour>
    <contour>
      <point x="1112" y="0" type="line"/>
      <point x="928" y="0" type="line"/>
      <point x="323" y="876" type="line"/>
      <point x="323" y="0" type="line"/>
      <point x="138" y="0" type="line"/>
      <point x="138" y="1165" type="line"/>
      <point x="323" y="1165" type="line"/>
      <point x="928" y="288" type="line"/>
      <point x="928" y="1165" type="line"/>
      <point x="1112" y="1165" type="line"/>
    </contour>
  </outline>
</glyph>
<glyph name="glyph00548" format="2">
  <advance width="751"/>
  <outline>
    <contour>
      <point x="651" y="579" type="qcurve" smooth="yes"/>
      <point x="651.0" y="520.0" name="inserted"/>
      <point x="591.5" y="433.5"/>
      <point x="532" y="406" type="qcurve"/>
      <point x="601.5" y="376.5" name="inserted"/>
      <point x="671.0" y="281.5"/>
      <point x="671" y="216" type="qcurve" smooth="yes"/>
      <point x="671" y="110"/>
      <point x="511" y="-11"/>
      <point x="375.0" y="-11.0" type="qcurve" smooth="yes" name="inserted"/>
      <point x="239" y="-11"/>
      <point x="79" y="110"/>
      <point x="79" y="216" type="qcurve" smooth="yes"/>
      <point x="79" y="282"/>
      <point x="153" y="379"/>
      <point x="217" y="406" type="qcurve"/>
      <point x="157.5" y="433.5" name="inserted"/>
      <point x="98.0" y="520.0"/>
      <point x="98" y="579" type="qcurve" smooth="yes"/>
      <point x="98" y="682"/>
      <point x="249" y="800"/>
      <point x="374" y="800" type="qcurve" smooth="yes"/>
      <point x="500" y="800"/>
      <point x="651" y="682"/>
    </contour>
    <contour>
      <point x="514" y="228" type="qcurve" smooth="yes"/>
      <point x="514" y="280"/>
      <point x="436" y="338"/>
      <point x="374" y="338" type="qcurve" smooth="yes"/>
      <point x="311" y="338"/>
      <point x="236" y="280"/>
      <point x="236" y="228" type="qcurve" smooth="yes"/>
      <point x="236" y="175"/>
      <point x="312" y="117"/>
      <point x="375.0" y="117.0" type="qcurve" smooth="yes" name="inserted"/>
      <point x="438" y="117"/>
      <point x="514" y="175"/>
    </contour>
    <contour>
      <point x="374" y="671" type="qcurve" smooth="yes"/>
      <point x="319" y="671"/>
      <point x="256" y="618"/>
      <point x="256" y="570" type="qcurve" smooth="yes"/>
      <point x="256" y="524"/>
      <point x="319" y="468"/>
      <point x="375.0" y="468.0" type="qcurve" smooth="yes" name="inserted"/>
      <point x="431" y="468"/>
      <point x="494" y="524"/>
      <point x="494.0" y="570.0" type="qcurve" smooth="yes" name="inserted"/>
      <point x="494" y="616"/>
      <point x="430" y="671"/>
    </contour>
  </outline>
</glyph>
<glyph name="glyph00549" format="2">
  <advance width="751"/>
  <outline>
    <contour>
      <point x="502" y="320" type="qcurve"/>
      <point x="467.5" y="287.5" name="inserted"/>
      <point x="382.5" y="255.0"/>
      <point x="332" y="255" type="qcurve" smooth="yes"/>
      <point x="214" y="255"/>
      <point x="73" y="393"/>
      <point x="73" y="519" type="qcurve" smooth="yes"/>
      <point x="73" y="640"/>
      <point x="236" y="800"/>
      <point x="365" y="800" type="qcurve" smooth="yes"/>
      <point x="502" y="800"/>
      <point x="658" y="635"/>
      <point x="661" y="487" type="qcurve" smooth="yes"/>
      <point x="661" y="426" type="line" smooth="yes"/>
      <point x="661.0" y="220.0" name="inserted"/>
      <point x="462.5" y="4.0"/>
      <point x="264" y="-6" type="qcurve" smooth="yes"/>
      <point x="209" y="-7" type="line"/>
      <point x="209" y="120" type="line"/>
      <point x="359" y="120"/>
      <point x="491" y="218"/>
    </contour>
    <contour>
      <point x="368" y="376" type="qcurve" smooth="yes"/>
      <point x="415.0" y="376.0" name="inserted"/>
      <point x="483.0" y="411.5"/>
      <point x="504" y="447" type="qcurve"/>
      <point x="504" y="507" type="line" smooth="yes"/>
      <point x="504" y="590"/>
      <point x="425" y="670"/>
      <point x="365" y="670" type="qcurve" smooth="yes"/>
      <point x="306" y="670"/>
      <point x="230" y="586"/>
      <point x="230" y="519" type="qcurve" smooth="yes"/>
      <point x="230" y="454"/>
      <point x="304" y="376"/>
    </contour>
  </outline>
</glyph>
<glyph name="glyph00550" format="2">
  <advance width="918"/>
  <outline>
    <contour>
      <point x="779" y="651" type="line"/>
      <point x="143" y="651" type="line"/>
      <point x="143" y="802" type="line"/>
      <point x="779" y="802" type="line"/>
    </contour>
  </outline>
</glyph>
<glyph name="glyph00553" format="2">
  <advance width="1082"/>
  <outline>
    <contour>
      <point x="1041" y="935" type="line"/>
      <point x="890" y="935" type="line"/>
      <point x="919.0" y="893.0" name="inserted"/>
      <point x="948.5" y="798.5"/>
      <point x="949" y="746" type="qcurve" smooth="yes"/>
      <point x="949" y="721" type="line" smooth="yes"/>
      <point x="949" y="623"/>
      <point x="838" y="457"/>
      <point x="740.5" y="410.0" type="qcurve" smooth="yes" name="inserted"/>
      <point x="691.75" y="386.5" name="inserted"/>
      <point x="583.0" y="363.0"/>
      <point x="523" y="363" type="qcurve" smooth="yes"/>
      <point x="483.5" y="363.0" name="inserted"/>
      <point x="407.5" y="373.5"/>
      <point x="371" y="384" type="qcurve"/>
      <point x="345.0" y="363.0" name="inserted"/>
      <point x="319.0" y="310.0"/>
      <point x="319" y="278" type="qcurve" smooth="yes"/>
      <point x="319.0" y="238.0" name="inserted"/>
      <point x="380.0" y="197.0"/>
      <point x="441" y="196" type="qcurve" smooth="yes"/>
      <point x="624" y="196" type="line" smooth="yes"/>
      <point x="824" y="195"/>
      <point x="1030" y="46"/>
      <point x="1030" y="-97" type="qcurve" smooth="yes"/>
      <point x="1030" y="-181"/>
      <point x="889" y="-342"/>
      <point x="767.0" y="-390.0" type="qcurve" smooth="yes" name="inserted"/>
      <point x="706.0" y="-414.0" name="inserted"/>
      <point x="569.5" y="-438.0"/>
      <point x="494" y="-438" type="qcurve" smooth="yes"/>
      <point x="285" y="-438"/>
      <point x="30" y="-283"/>
      <point x="30" y="-161" type="qcurve" smooth="yes"/>
      <point x="30" y="-78"/>
      <point x="124" y="60"/>
      <point x="208" y="102" type="qcurve"/>
      <point x="180.0" y="125.5" name="inserted"/>
      <point x="152.0" y="186.0"/>
      <point x="152" y="223" type="qcurve" smooth="yes"/>
      <point x="152.0" y="285.0" name="inserted"/>
      <point x="209.5" y="388.0"/>
      <point x="267" y="429" type="qcurve"/>
      <point x="180.0" y="482.0" name="inserted"/>
      <point x="93.0" y="633.5"/>
      <point x="93" y="732" type="qcurve" smooth="yes"/>
      <point x="93" y="743" type="line" smooth="yes"/>
      <point x="93" y="900"/>
      <point x="334" y="1102"/>
      <point x="521" y="1102" type="qcurve" smooth="yes"/>
      <point x="561.0" y="1102.0" name="inserted"/>
      <point x="636.5" y="1092.0"/>
      <point x="672" y="1082" type="qcurve"/>
      <point x="1039" y="1082" type="line"/>
    </contour>
    <contour>
      <point x="331" y="50" type="line"/>
      <point x="275" y="24"/>
      <point x="215" y="-69"/>
      <point x="215" y="-124" type="qcurve" smooth="yes"/>
      <point x="215" y="-198"/>
      <point x="363" y="-287"/>
      <point x="494" y="-287" type="qcurve" smooth="yes"/>
      <point x="640" y="-287"/>
      <point x="845" y="-173"/>
      <point x="845" y="-97" type="qcurve" smooth="yes"/>
      <point x="845" y="-23"/>
      <point x="741" y="42"/>
      <point x="633" y="44" type="qcurve" smooth="yes"/>
      <point x="394" y="44" type="line"/>
    </contour>
    <contour>
      <point x="278" y="721" type="line" smooth="yes"/>
      <point x="278" y="638"/>
      <point x="418" y="515"/>
      <point x="523" y="515" type="qcurve" smooth="yes"/>
      <point x="626" y="515"/>
      <point x="764" y="637"/>
      <point x="764" y="725" type="qcurve" smooth="yes"/>
      <point x="764" y="743" type="line" smooth="yes"/>
      <point x="764" y="830"/>
      <point x="626" y="950"/>
      <point x="521.0" y="950.0" type="qcurve" smooth="yes" name="inserted"/>
      <point x="416" y="950"/>
      <point x="278" y="830"/>
      <point x="278" y="740" type="qcurve" smooth="yes"/>
    </contour>
  </outline>
</glyph>
<glyph name="glyph00559" format="2">
  <advance width="1039"/>
  <outline>
    <contour>
      <point x="336" y="499" type="line"/>
      <point x="332" y="499" type="line"/>
      <point x="332" y="0" type="line"/>
      <point x="146" y="0" type="line"/>
      <point x="146" y="1560" type="line"/>
      <point x="332" y="1560" type="line"/>
      <point x="332" y="653" type="line"/>
      <point x="333" y="653" type="line"/>
      <point x="727" y="1082" type="line"/>
      <point x="967" y="1082" type="line"/>
      <point x="498" y="583" type="line"/>
      <point x="1009" y="0" type="line"/>
      <point x="781" y="0" type="line"/>
    </contour>
  </outline>
</glyph>
<glyph name="glyph00570" format="2">
  <advance width="1012"/>
  <outline>
    <contour>
      <point x="838" y="1252" type="line"/>
      <point x="668" y="1252" type="line"/>
      <point x="471" y="1410" type="line"/>
      <point x="274" y="1252" type="line"/>
      <point x="105" y="1252" type="line"/>
      <point x="406" y="1496" type="line"/>
      <point x="537" y="1496" type="line"/>
    </contour>
    <contour>
      <point x="732" y="1725" type="line"/>
      <point x="732" y="1663"/>
      <point x="636" y="1569"/>
      <point x="571" y="1569" type="qcurve" smooth="yes"/>
      <point x="517" y="1569"/>
      <point x="407" y="1640"/>
      <point x="367" y="1640" type="qcurve" smooth="yes"/>
      <point x="338" y="1640"/>
      <point x="284" y="1594"/>
      <point x="284" y="1565" type="qcurve"/>
      <point x="207" y="1584" type="line"/>
      <point x="207" y="1647"/>
      <point x="303" y="1745"/>
      <point x="367" y="1745" type="qcurve" smooth="yes"/>
      <point x="409" y="1745"/>
      <point x="533" y="1675"/>
      <point x="571" y="1675" type="qcurve" smooth="yes"/>
      <point x="602" y="1675"/>
      <point x="654" y="1720"/>
      <point x="654" y="1748" type="qcurve"/>
    </contour>
  </outline>
</glyph>
<glyph name="glyph00572" format="2">
  <advance width="927"/>
  <outline>
    <contour>
      <point x="736" y="1456" type="line"/>
      <point x="736" y="1361"/>
      <point x="568" y="1247"/>
      <point x="433" y="1247" type="qcurve" smooth="yes"/>
      <point x="297" y="1247"/>
      <point x="129" y="1361"/>
      <point x="129" y="1456" type="qcurve"/>
      <point x="281" y="1456" type="line"/>
      <point x="281" y="1401"/>
      <point x="360" y="1340"/>
      <point x="433" y="1340" type="qcurve" smooth="yes"/>
      <point x="504" y="1340"/>
      <point x="583" y="1403"/>
      <point x="583" y="1456" type="qcurve"/>
    </contour>
    <contour>
      <point x="487" y="1674" type="line"/>
      <point x="640" y="1674" type="line"/>
      <point x="476" y="1476" type="line"/>
      <point x="374" y="1476" type="line"/>
    </contour>
  </outline>
</glyph>
<glyph name="glyph00573" format="2">
  <advance width="926"/>
  <outline>
    <contour>
      <point x="714" y="1456" type="line"/>
      <point x="714" y="1362"/>
      <point x="553" y="1248"/>
      <point x="422" y="1248" type="qcurve" smooth="yes"/>
      <point x="290" y="1248"/>
      <point x="129" y="1363"/>
      <point x="129" y="1456" type="qcurve"/>
      <point x="275" y="1456" type="line"/>
      <point x="275" y="1403"/>
      <point x="349" y="1341"/>
      <point x="422" y="1341" type="qcurve" smooth="yes"/>
      <point x="491" y="1341"/>
      <point x="567" y="1402"/>
      <point x="567" y="1456" type="qcurve"/>
    </contour>
    <contour>
      <point x="366" y="1473" type="line"/>
      <point x="365" y="1597" type="line"/>
      <point x="439" y="1601"/>
      <point x="505" y="1625"/>
      <point x="505" y="1654" type="qcurve" smooth="yes"/>
      <point x="505.0" y="1683.5" name="inserted"/>
      <point x="425.0" y="1713.0"/>
      <point x="345" y="1713" type="qcurve"/>
      <point x="352" y="1795" type="line"/>
      <point x="496" y="1795"/>
      <point x="644" y="1717"/>
      <point x="644" y="1651" type="qcurve" smooth="yes"/>
      <point x="644" y="1601"/>
      <point x="563" y="1542"/>
      <point x="495" y="1535" type="qcurve"/>
      <point x="494" y="1473" type="line"/>
    </contour>
  </outline>
</glyph>
<glyph name="glyph00581" format="2">
  <advance width="1409"/>
  <outline>
    <contour>
      <point x="1308" y="462" type="line"/>
      <point x="1284" y="239"/>
      <point x="991" y="-21"/>
      <point x="753" y="-21" type="qcurve" smooth="yes"/>
      <point x="576" y="-21"/>
      <point x="289" y="159"/>
      <point x="208.0" y="322.5" type="qcurve" smooth="yes" name="inserted"/>
      <point x="167.5" y="404.25" name="inserted"/>
      <point x="126.5" y="587.5"/>
      <point x="126" y="689" type="qcurve" smooth="yes"/>
      <point x="126" y="757" type="line" smooth="yes"/>
      <point x="126" y="968"/>
      <point x="283" y="1298"/>
      <point x="424.5" y="1387.5" type="qcurve" smooth="yes" name="inserted"/>
      <point x="495.25" y="1432.25" name="inserted"/>
      <point x="655.0" y="1477.0"/>
      <point x="744" y="1477" type="qcurve" smooth="yes"/>
      <point x="981" y="1477"/>
      <point x="1284" y="1215"/>
      <point x="1309" y="988" type="qcurve"/>
      <point x="1116" y="988" type="line"/>
      <point x="1092" y="1151"/>
      <point x="901" y="1319"/>
      <point x="744" y="1319" type="qcurve" smooth="yes"/>
      <point x="552" y="1319"/>
      <point x="318" y="1010"/>
      <point x="318" y="752" type="qcurve" smooth="yes"/>
      <point x="318" y="697" type="line" smooth="yes"/>
      <point x="318" y="536"/>
      <point x="428" y="280"/>
      <point x="528.0" y="208.0" type="qcurve" smooth="yes" name="inserted"/>
      <point x="578.0" y="172.0" name="inserted"/>
      <point x="690.5" y="136.0"/>
      <point x="753" y="136" type="qcurve" smooth="yes"/>
      <point x="914" y="136"/>
      <point x="1090" y="293"/>
      <point x="1116" y="462" type="qcurve"/>
    </contour>
  </outline>
</glyph>
<glyph name="glyph00593" format="2">
  <advance width="401"/>
  <outline>
    <contour>
      <point x="289" y="-359" type="line"/>
      <point x="103" y="-359" type="line"/>
      <point x="103" y="153" type="line"/>
      <point x="289" y="153" type="line"/>
    </contour>
  </outline>
</glyph>
<glyph name="glyph00594" format="2">
  <advance width="1700"/>
  <outline>
    <contour>
      <point x="1645" y="0" type="line"/>
      <point x="976" y="0" type="line"/>
      <point x="606" y="-16" type="line" smooth="yes"/>
      <point x="377" y="-16"/>
      <point x="96" y="290"/>
      <point x="96" y="553" type="qcurve" smooth="yes"/>
      <point x="96" y="615" type="line" smooth="yes"/>
      <point x="96" y="873"/>
      <point x="375" y="1181"/>
      <point x="604" y="1181" type="qcurve" smooth="yes"/>
      <point x="951" y="1165" type="line"/>
      <point x="1638" y="1165" type="line"/>
      <point x="1638" y="1012" type="line"/>
      <point x="1025" y="1012" type="line"/>
      <point x="1025" y="678" type="line"/>
      <point x="1557" y="678" type="line"/>
      <point x="1557" y="526" type="line"/>
      <point x="1025" y="526" type="line"/>
      <point x="1025" y="151" type="line"/>
      <point x="1645" y="151" type="line"/>
    </contour>
    <contour>
      <point x="606" y="138" type="qcurve" smooth="yes"/>
      <point x="840" y="145" type="line"/>
      <point x="840" y="1016" type="line"/>
      <point x="604" y="1025" type="line" smooth="yes"/>
      <point x="454" y="1025"/>
      <point x="279" y="811"/>
      <point x="279" y="614" type="qcurve" smooth="yes"/>
      <point x="279" y="548" type="line" smooth="yes"/>
      <point x="279" y="353"/>
      <point x="455" y="138"/>
    </contour>
  </outline>
</glyph>
<glyph name="glyph00596" format="2">
  <advance width="508"/>
  <outline>
    <contour>
      <point x="359" y="152" type="line"/>
      <point x="359" y="-93" type="line"/>
      <point x="358" y="-261"/>
      <point x="188" y="-437"/>
      <point x="37" y="-437" type="qcurve" smooth="yes"/>
      <point x="7.5" y="-437.0" name="inserted"/>
      <point x="-48.0" y="-428.0"/>
      <point x="-74" y="-419" type="qcurve"/>
      <point x="-60" y="-262" type="line"/>
      <point x="-45.0" y="-268.5" name="inserted"/>
      <point x="3.5" y="-275.0"/>
      <point x="37" y="-275" type="qcurve" smooth="yes"/>
      <point x="105.5" y="-275.0" name="inserted"/>
      <point x="174.0" y="-178.0"/>
      <point x="174" y="-81" type="qcurve" smooth="yes"/>
      <point x="174" y="152" type="line"/>
    </contour>
  </outline>
</glyph>
<glyph name="glyph00613" format="2">
  <advance width="1280"/>
  <outline>
    <contour>
      <point x="1161" y="572" type="line" smooth="yes"/>
      <point x="1161" y="294"/>
      <point x="881" y="-21"/>
      <point x="642.0" y="-21.0" type="qcurve" smooth="yes" name="inserted"/>
      <point x="403" y="-21"/>
      <point x="121" y="295"/>
      <point x="120" y="571" type="qcurve" smooth="yes"/>
      <point x="120" y="591" type="line" smooth="yes"/>
      <point x="120" y="867"/>
      <point x="401" y="1185"/>
      <point x="640.0" y="1185.0" type="qcurve" smooth="yes" name="inserted"/>
      <point x="879" y="1185"/>
      <point x="1160" y="869"/>
      <point x="1161" y="592" type="qcurve" smooth="yes"/>
    </contour>
    <contour>
      <point x="975" y="605" type="line" smooth="yes"/>
      <point x="975" y="807"/>
      <point x="797" y="1033"/>
      <point x="640" y="1033" type="qcurve" smooth="yes"/>
      <point x="485" y="1033"/>
      <point x="307" y="809"/>
      <point x="305" y="612" type="qcurve"/>
      <point x="305" y="560" type="line" smooth="yes"/>
      <point x="305" y="359"/>
      <point x="487" y="130"/>
      <point x="642" y="130" type="qcurve" smooth="yes"/>
      <point x="796" y="130"/>
      <point x="973" y="351"/>
      <point x="975" y="553" type="qcurve" smooth="yes"/>
    </contour>
  </outline>
</glyph>
<glyph name="glyph00614" format="2">
  <advance width="1056"/>
  <outline>
    <contour>
      <point x="978" y="1352" type="line"/>
      <point x="400" y="0" type="line"/>
      <point x="214" y="0" type="line"/>
      <point x="790" y="1304" type="line"/>
      <point x="59" y="1304" type="line"/>
      <point x="59" y="1456" type="line"/>
      <point x="978" y="1456" type="line"/>
    </contour>
  </outline>
</glyph>
<glyph name="glyph00621" format="2">
  <advance width="1180"/>
  <outline>
    <contour>
      <point x="91" y="549" type="line" smooth="yes"/>
      <point x="91" y="794"/>
      <point x="338" y="1102"/>
      <point x="542" y="1102" type="qcurve" smooth="yes"/>
      <point x="640.0" y="1102.0" name="inserted"/>
      <point x="793.5" y="1035.0"/>
      <point x="849" y="968" type="qcurve"/>
      <point x="863" y="1082" type="line"/>
      <point x="1023" y="1082" type="line"/>
      <point x="1023" y="-416" type="line"/>
      <point x="838" y="-416" type="line"/>
      <point x="838" y="100" type="line"/>
      <point x="782.0" y="40.0" name="inserted"/>
      <point x="633.0" y="-20.0"/>
      <point x="540" y="-20" type="qcurve" smooth="yes"/>
      <point x="341" y="-20"/>
      <point x="91" y="289"/>
      <point x="91" y="535" type="qcurve" smooth="yes"/>
    </contour>
    <contour>
      <point x="276" y="528" type="qcurve" smooth="yes"/>
      <point x="276" y="354"/>
      <point x="446" y="131"/>
      <point x="586" y="131" type="qcurve" smooth="yes"/>
      <point x="669.0" y="131.0" name="inserted"/>
      <point x="795.0" y="204.5"/>
      <point x="838" y="278" type="qcurve"/>
      <point x="838" y="807" type="line"/>
      <point x="794.0" y="878.5" name="inserted"/>
      <point x="669.0" y="950.0"/>
      <point x="588" y="950" type="qcurve" smooth="yes"/>
      <point x="446" y="950"/>
      <point x="276" y="727"/>
    </contour>
  </outline>
</glyph>
<glyph name="glyph00625" format="2">
  <advance width="1238"/>
  <outline>
    <contour>
      <point x="488" y="-16" type="qcurve" smooth="yes"/>
      <point x="317" y="-16"/>
      <point x="103" y="149"/>
      <point x="103" y="278" type="qcurve" smooth="yes"/>
      <point x="103" y="364"/>
      <point x="181" y="498"/>
      <point x="285" y="573" type="qcurve" smooth="yes"/>
      <point x="360" y="627" type="line"/>
      <point x="285" y="706" type="line" smooth="yes"/>
      <point x="238.5" y="758.0" name="inserted"/>
      <point x="192.0" y="864.0"/>
      <point x="192" y="918" type="qcurve" smooth="yes"/>
      <point x="192" y="1033"/>
      <point x="365" y="1181"/>
      <point x="509" y="1181" type="qcurve" smooth="yes"/>
      <point x="643" y="1181"/>
      <point x="820" y="1031"/>
      <point x="820" y="919" type="qcurve" smooth="yes"/>
      <point x="820.0" y="847.0" name="inserted"/>
      <point x="742.5" y="719.5"/>
      <point x="665" y="664" type="qcurve" smooth="yes"/>
      <point x="592" y="612" type="line"/>
      <point x="860" y="327" type="line"/>
      <point x="894.5" y="385.0" name="inserted"/>
      <point x="929.0" y="521.5"/>
      <point x="929" y="600" type="qcurve"/>
      <point x="1097" y="600" type="line"/>
      <point x="1097.0" y="488.0" name="inserted"/>
      <point x="1033.5" y="293.0"/>
      <point x="970" y="210" type="qcurve"/>
      <point x="1169" y="0" type="line"/>
      <point x="959" y="0" type="line"/>
      <point x="865" y="97" type="line"/>
      <point x="789.5" y="40.5" name="inserted"/>
      <point x="601.0" y="-16.0"/>
    </contour>
    <contour>
      <point x="505" y="137" type="qcurve" smooth="yes"/>
      <point x="577.5" y="137.0" name="inserted"/>
      <point x="703.0" y="174.5"/>
      <point x="756" y="212" type="qcurve"/>
      <point x="463" y="519" type="line"/>
      <point x="363" y="446" type="line" smooth="yes"/>
      <point x="325.0" y="416.5" name="inserted"/>
      <point x="287.0" y="345.0"/>
      <point x="287" y="303" type="qcurve" smooth="yes"/>
      <point x="287" y="230"/>
      <point x="394" y="137"/>
    </contour>
    <contour>
      <point x="373" y="905" type="qcurve" smooth="yes"/>
      <point x="373.0" y="876.0" name="inserted"/>
      <point x="404.5" y="812.0"/>
      <point x="436" y="777" type="qcurve" smooth="yes"/>
      <point x="490" y="720" type="line"/>
      <point x="556" y="768" type="line" smooth="yes"/>
      <point x="597.5" y="798.0" name="inserted"/>
      <point x="639.0" y="866.5"/>
      <point x="639" y="905" type="qcurve" smooth="yes"/>
      <point x="639" y="957"/>
      <point x="567" y="1026"/>
      <point x="501" y="1026" type="qcurve" smooth="yes"/>
      <point x="445" y="1026"/>
      <point x="373" y="956"/>
    </contour>
  </outline>
</glyph>
<glyph name="glyph00627" format="2">
  <advance width="1593"/>
  <outline>
    <contour>
      <point x="1416" y="533" type="line"/>
      <point x="957" y="533" type="line"/>
      <point x="971" y="149" type="line"/>
      <point x="1521" y="149" type="line"/>
      <point x="1521" y="0" type="line"/>
      <point x="791" y="0" type="line"/>
      <point x="780" y="301" type="line"/>
      <point x="370" y="301" type="line"/>
      <point x="207" y="0" type="line"/>
      <point x="9" y="0" type="line"/>
      <point x="671" y="1165" type="line"/>
      <point x="1480" y="1165" type="line"/>
      <point x="1480" y="1015" type="line"/>
      <point x="940" y="1015" type="line"/>
      <point x="952" y="683" type="line"/>
      <point x="1416" y="683" type="line"/>
    </contour>
    <contour>
      <point x="451" y="452" type="line"/>
      <point x="775" y="452" type="line"/>
      <point x="756" y="1014" type="line"/>
    </contour>
  </outline>
</glyph>
<glyph name="glyph00631" format="2">
  <advance width="1251"/>
  <outline>
    <contour>
      <point x="791" y="-437" type="qcurve" smooth="yes"/>
      <point x="761.0" y="-437.0" name="inserted"/>
      <point x="705.0" y="-428.0"/>
      <point x="679" y="-419" type="qcurve"/>
      <point x="692" y="-262" type="line"/>
      <point x="709.5" y="-268.5" name="inserted"/>
      <point x="759.0" y="-275.0"/>
      <point x="791" y="-275" type="qcurve" smooth="yes"/>
      <point x="859.0" y="-275.0" name="inserted"/>
      <point x="927.0" y="-177.5"/>
      <point x="927" y="-80" type="qcurve" smooth="yes"/>
      <point x="927" y="1" type="line"/>
      <point x="323" y="876" type="line"/>
      <point x="323" y="0" type="line"/>
      <point x="138" y="0" type="line"/>
      <point x="138" y="1165" type="line"/>
      <point x="323" y="1165" type="line"/>
      <point x="928" y="288" type="line"/>
      <point x="928" y="1165" type="line"/>
      <point x="1112" y="1165" type="line"/>
      <point x="1112" y="-89" type="line" smooth="yes"/>
      <point x="1112" y="-258"/>
      <point x="942" y="-437"/>
    </contour>
  </outline>
</glyph>
